<?xml version="1.0" encoding="UTF-8" standalone="no"?>
<!DOCTYPE svg PUBLIC "-//W3C//DTD SVG 1.1//EN" "http://www.w3.org/Graphics/SVG/1.1/DTD/svg11.dtd">
<svg version="1.1" xmlns="http://www.w3.org/2000/svg" xmlns:xlink="http://www.w3.org/1999/xlink" preserveAspectRatio="xMidYMid meet" viewBox="0 0 750 750" width="750" height="750"><defs><path d="M528.21 0.18L529.16 0.19L530.1 0.22L531.04 0.26L531.97 0.32L532.9 0.38L533.82 0.46L534.74 0.55L535.66 0.64L536.57 0.76L537.48 0.88L538.38 1.02L539.27 1.16L540.17 1.32L541.05 1.49L541.94 1.68L542.81 1.87L543.69 2.08L544.55 2.3L545.42 2.53L546.27 2.78L547.13 3.03L547.97 3.3L548.81 3.58L549.65 3.88L550.48 4.18L551.31 4.5L552.13 4.83L552.94 5.17L553.75 5.53L554.55 5.9L555.35 6.28L556.14 6.67L556.92 7.08L557.7 7.5L558.48 7.93L559.24 8.37L560 8.83L560.76 9.3L561.51 9.78L564.68 11.98L567.72 14.39L570.64 17.02L573.44 19.86L576.11 22.91L578.66 26.16L581.09 29.61L583.39 33.26L585.56 37.11L587.61 41.14L589.54 45.36L591.35 49.77L593.03 54.35L594.59 59.11L596.03 64.05L597.34 69.15L598.53 74.42L599.6 79.85L600.54 85.45L601.37 91.2L602.07 97.1L602.65 103.15L603.11 109.35L603.44 115.68L603.66 122.16L603.75 128.77L603.72 135.52L603.57 142.39L603.3 149.39L602.91 156.51L602.4 163.75L601.77 171.1L601.01 178.56L600.14 186.13L599.15 193.81L598.04 201.59L596.8 209.46L595.45 217.43L593.98 225.49L592.39 233.63L599.48 236.13L606.44 238.7L613.28 241.34L619.98 244.06L626.55 246.84L632.98 249.69L639.26 252.6L645.41 255.58L651.41 258.62L657.26 261.72L662.96 264.88L668.5 268.1L673.89 271.38L679.11 274.71L684.18 278.09L689.08 281.52L693.81 285L698.37 288.54L702.76 292.11L706.97 295.73L711 299.4L714.85 303.11L718.51 306.85L721.99 310.64L725.28 314.46L728.38 318.31L731.28 322.2L733.98 326.13L736.49 330.08L738.79 334.06L740.88 338.07L742.77 342.1L744.44 346.16L745.9 350.23L747.14 354.33L748.16 358.45L748.96 362.59L749.54 366.74L749.88 370.91L750 375.09L749.88 379.25L749.54 383.41L748.97 387.55L748.17 391.67L747.15 395.78L745.92 399.87L744.47 403.94L742.8 407.99L740.93 412.01L738.84 416.01L736.56 419.99L734.07 423.93L731.38 427.85L728.49 431.73L725.41 435.58L722.14 439.4L718.68 443.18L715.03 446.92L711.2 450.63L707.2 454.29L703.01 457.91L698.65 461.48L694.11 465.01L689.41 468.49L684.54 471.92L679.5 475.3L674.3 478.63L668.95 481.9L663.44 485.12L657.77 488.28L651.96 491.38L646 494.42L639.89 497.4L633.64 500.31L627.25 503.16L620.72 505.94L614.06 508.66L607.27 511.3L600.35 513.87L593.3 516.37L594.91 524.49L596.39 532.52L597.75 540.46L599 548.31L600.12 556.07L601.13 563.72L602.01 571.27L602.78 578.72L603.42 586.05L603.94 593.27L604.35 600.37L604.63 607.35L604.79 614.2L604.83 620.93L604.75 627.53L604.54 633.99L604.22 640.31L603.77 646.49L603.2 652.53L602.51 658.42L601.7 664.15L600.77 669.73L599.71 675.16L598.53 680.42L597.23 685.51L595.81 690.44L594.26 695.19L592.59 699.77L590.79 704.16L588.88 708.38L586.83 712.4L584.67 716.24L582.38 719.89L579.97 723.34L577.43 726.58L574.77 729.63L571.99 732.46L569.08 735.09L566.04 737.5L562.88 739.7L562.12 740.18L561.36 740.65L560.59 741.11L559.81 741.55L559.03 741.99L558.24 742.41L557.45 742.81L556.65 743.2L555.84 743.59L555.03 743.95L554.22 744.31L553.4 744.65L552.57 744.98L551.74 745.3L550.9 745.61L550.06 745.9L549.21 746.18L548.36 746.45L547.5 746.71L546.64 746.95L545.77 747.19L544.9 747.4L544.02 747.61L543.14 747.81L542.25 747.99L541.35 748.16L540.46 748.32L539.55 748.47L538.64 748.61L537.73 748.73L536.81 748.84L535.89 748.94L534.96 749.03L534.03 749.1L533.09 749.17L532.15 749.22L531.2 749.26L530.25 749.29L529.29 749.31L528.33 749.31L525.16 749.25L521.93 749.06L518.66 748.75L515.34 748.32L511.98 747.77L508.58 747.09L505.13 746.3L501.65 745.39L498.12 744.35L494.56 743.2L490.96 741.94L487.32 740.55L483.65 739.06L479.95 737.44L476.21 735.72L472.44 733.88L468.64 731.93L464.81 729.86L460.96 727.69L457.07 725.41L453.17 723.02L449.23 720.52L445.28 717.91L441.3 715.2L437.3 712.38L433.28 709.46L429.25 706.43L425.19 703.3L421.12 700.07L417.04 696.74L412.94 693.3L408.83 689.77L404.7 686.13L400.57 682.4L396.43 678.57L392.27 674.64L388.12 670.62L383.95 666.5L379.78 662.29L375.61 657.99L371.44 662.32L367.27 666.56L363.11 670.7L358.95 674.75L354.8 678.7L350.65 682.55L346.52 686.31L342.4 689.97L338.28 693.53L334.19 696.99L330.1 700.35L326.03 703.6L321.98 706.76L317.94 709.8L313.92 712.75L309.92 715.59L305.94 718.32L301.99 720.95L298.06 723.47L294.15 725.88L290.27 728.18L286.41 730.37L282.58 732.45L278.78 734.42L275.01 736.28L271.28 738.02L267.57 739.64L263.9 741.16L260.26 742.55L256.66 743.83L253.1 744.99L249.57 746.03L246.09 746.96L242.64 747.76L239.24 748.44L235.88 749L232.56 749.44L229.29 749.75L226.07 749.94L222.89 750L221.93 749.99L220.97 749.98L220.02 749.95L219.08 749.91L218.13 749.85L217.2 749.79L216.26 749.71L215.34 749.63L214.41 749.53L213.5 749.42L212.58 749.29L211.68 749.16L210.77 749.01L209.88 748.85L208.98 748.68L208.1 748.49L207.22 748.3L206.34 748.09L205.47 747.87L204.6 747.64L203.74 747.4L202.89 747.14L202.04 746.87L201.2 746.59L200.36 746.3L199.53 745.99L198.7 745.67L197.88 745.34L197.06 745L196.25 744.64L195.45 744.27L194.65 743.89L193.86 743.5L193.08 743.09L192.3 742.67L191.52 742.24L190.76 741.8L190 741.34L189.24 740.87L188.49 740.39L185.32 738.19L182.28 735.78L179.36 733.15L176.56 730.31L173.89 727.26L171.34 724.01L168.91 720.56L166.61 716.91L164.44 713.07L162.39 709.03L160.46 704.81L158.65 700.41L156.97 695.82L155.41 691.06L153.97 686.13L152.66 681.02L151.47 675.75L150.4 670.32L149.46 664.72L148.63 658.98L147.93 653.07L147.35 647.02L146.89 640.83L146.56 634.49L146.34 628.01L146.25 621.4L146.28 614.65L146.43 607.78L146.7 600.78L147.09 593.66L147.6 586.42L148.23 579.07L148.99 571.61L149.86 564.04L150.85 556.36L151.96 548.58L153.2 540.71L154.55 532.74L156.02 524.68L157.61 516.54L150.52 514.04L143.56 511.47L136.72 508.83L130.02 506.12L123.45 503.33L117.02 500.48L110.74 497.57L104.59 494.59L98.59 491.55L92.74 488.45L87.04 485.29L81.5 482.07L76.11 478.79L70.89 475.46L65.82 472.08L60.92 468.65L56.19 465.17L51.63 461.64L47.24 458.06L43.03 454.44L39 450.77L35.15 447.07L31.49 443.32L28.01 439.54L24.72 435.71L21.62 431.86L18.72 427.97L16.02 424.05L13.51 420.09L11.21 416.11L9.12 412.11L7.23 408.07L5.56 404.02L4.1 399.94L2.86 395.84L1.84 391.72L1.04 387.58L0.46 383.43L0.12 379.26L0 375.09L0.12 370.92L0.46 366.77L1.03 362.63L1.83 358.5L2.85 354.4L4.08 350.31L5.53 346.24L7.2 342.2L9.08 338.18L11.16 334.18L13.45 330.21L15.94 326.27L18.63 322.36L21.52 318.48L24.6 314.63L27.88 310.82L31.34 307.04L34.99 303.31L38.83 299.61L42.84 295.95L47.04 292.33L51.41 288.76L55.95 285.24L60.66 281.76L65.54 278.33L70.58 274.95L75.79 271.62L81.16 268.35L86.68 265.13L92.36 261.96L98.18 258.86L104.16 255.82L110.28 252.83L116.55 249.91L122.95 247.06L129.5 244.27L136.18 241.55L142.99 238.9L149.93 236.32L157 233.81L155.4 225.69L153.92 217.65L152.55 209.71L151.31 201.86L150.18 194.1L149.18 186.45L148.29 178.9L147.53 171.46L146.89 164.12L146.36 156.91L145.96 149.81L145.68 142.83L145.52 135.97L145.48 129.24L145.56 122.65L145.76 116.18L146.09 109.86L146.53 103.68L147.1 97.64L147.79 91.75L148.6 86.02L149.54 80.44L150.59 75.01L151.77 69.75L153.08 64.66L154.5 59.74L156.05 54.98L157.72 50.41L159.51 46.01L161.43 41.79L163.47 37.77L165.64 33.93L167.92 30.28L170.34 26.84L172.87 23.59L175.53 20.54L178.32 17.71L181.23 15.08L184.26 12.67L187.42 10.47L188.18 9.99L188.95 9.52L189.72 9.06L190.5 8.62L191.28 8.19L192.07 7.77L192.86 7.36L193.66 6.97L194.46 6.59L195.27 6.22L196.09 5.86L196.91 5.52L197.73 5.19L198.57 4.87L199.4 4.56L200.25 4.27L201.09 3.99L201.95 3.72L202.8 3.46L203.67 3.22L204.53 2.99L205.41 2.77L206.29 2.56L207.17 2.36L208.06 2.18L208.95 2.01L209.85 1.85L210.75 1.7L211.66 1.57L212.58 1.44L213.49 1.33L214.42 1.23L215.35 1.14L216.28 1.07L217.22 1L218.16 0.95L219.1 0.91L220.06 0.88L221.01 0.86L221.97 0.86L221.97 0.69L225.15 0.75L228.38 0.94L231.65 1.25L234.96 1.68L238.32 2.23L241.73 2.91L245.17 3.7L248.66 4.61L252.18 5.65L255.75 6.8L259.35 8.06L262.98 9.45L266.65 10.94L270.36 12.56L274.1 14.28L277.87 16.12L281.67 18.07L285.49 20.14L289.35 22.31L293.23 24.59L297.14 26.98L301.07 29.48L305.03 32.09L309 34.8L313 37.62L317.02 40.54L321.06 43.57L325.11 46.7L329.18 49.93L333.27 53.26L337.37 56.7L341.48 60.23L345.6 63.87L349.74 67.6L353.88 71.43L358.03 75.36L362.19 79.38L366.35 83.5L370.52 87.71L374.69 92.01L378.87 87.68L383.04 83.44L387.2 79.3L391.36 75.25L395.51 71.3L399.65 67.45L403.79 63.69L407.91 60.03L412.02 56.47L416.12 53.01L420.21 49.65L424.28 46.4L428.33 43.24L432.37 40.2L436.39 37.25L440.38 34.41L444.36 31.68L448.32 29.05L452.25 26.53L456.16 24.12L460.04 21.82L463.9 19.63L467.72 17.55L471.52 15.58L475.29 13.72L479.03 11.98L482.73 10.36L486.4 8.84L490.04 7.45L493.64 6.17L497.21 5.01L500.73 3.97L504.22 3.04L507.66 2.24L511.07 1.56L514.43 1L517.74 0.56L521.01 0.25L524.24 0.06L527.42 0L527.42 0.17L528.21 0.18ZM189.83 529.43L189.58 530.73L189.34 532.03L189.1 533.32L188.86 534.61L188.62 535.9L188.39 537.19L188.16 538.48L187.93 539.77L187.7 541.05L187.48 542.33L187.26 543.61L187.04 544.89L186.83 546.17L186.62 547.44L186.41 548.72L186.2 549.99L186 551.26L185.8 552.52L185.6 553.79L185.41 555.05L185.22 556.31L185.03 557.56L184.85 558.82L184.67 560.07L184.49 561.32L184.32 562.57L184.15 563.81L183.99 565.05L183.82 566.29L183.67 567.53L183.51 568.76L183.36 569.99L183.21 571.22L183.07 572.44L182.93 573.66L182.79 574.88L182.66 576.09L182.53 577.31L182.03 582.2L181.6 587.03L181.22 591.8L180.9 596.52L180.64 601.17L180.44 605.75L180.29 610.27L180.2 614.72L180.17 619.09L180.2 623.39L180.28 627.62L180.42 631.76L180.61 635.83L180.86 639.81L181.17 643.71L181.52 647.52L181.93 651.24L182.4 654.87L182.92 658.41L183.49 661.85L184.11 665.19L184.78 668.44L185.51 671.58L186.28 674.61L187.11 677.55L187.99 680.37L188.92 683.08L189.89 685.68L190.92 688.16L191.99 690.52L193.11 692.77L194.28 694.89L195.5 696.9L196.76 698.77L198.07 700.52L199.43 702.13L200.83 703.62L202.28 704.97L203.77 706.18L205.31 707.26L205.66 707.47L206.01 707.68L206.36 707.89L206.72 708.09L207.09 708.29L207.46 708.48L207.83 708.66L208.21 708.84L208.59 709.02L208.98 709.19L209.37 709.35L209.76 709.51L210.16 709.67L210.57 709.82L210.98 709.96L211.39 710.1L211.81 710.23L212.23 710.36L212.66 710.48L213.09 710.6L213.52 710.72L213.96 710.82L214.41 710.93L214.85 711.03L215.3 711.12L215.76 711.21L216.22 711.29L216.69 711.37L217.16 711.44L217.63 711.5L218.11 711.57L218.59 711.62L219.07 711.67L219.56 711.72L220.06 711.76L220.55 711.8L221.05 711.83L221.56 711.85L222.07 711.88L222.58 711.89L225 711.84L227.47 711.68L229.99 711.41L232.56 711.04L235.19 710.56L237.86 709.98L240.59 709.3L243.37 708.51L246.19 707.62L249.06 706.63L251.97 705.53L254.93 704.33L257.93 703.03L260.97 701.63L264.05 700.13L267.17 698.53L270.33 696.83L273.53 695.03L276.76 693.14L280.03 691.14L283.33 689.05L286.66 686.86L290.03 684.57L293.43 682.19L296.85 679.71L300.3 677.14L303.79 674.47L307.29 671.71L310.82 668.85L314.38 665.9L317.96 662.86L321.56 659.73L325.18 656.5L328.82 653.18L332.48 649.77L336.15 646.27L339.84 642.68L343.55 639.01L347.27 635.24L351 631.38L349.38 629.48L347.77 627.57L346.15 625.64L344.54 623.7L342.92 621.75L341.31 619.78L339.7 617.8L338.09 615.81L336.48 613.81L334.87 611.79L333.26 609.76L331.66 607.71L330.05 605.66L328.45 603.59L326.85 601.51L325.25 599.41L323.65 597.31L322.05 595.19L320.45 593.05L318.86 590.91L317.26 588.75L315.67 586.59L314.08 584.41L312.5 582.21L310.91 580.01L309.33 577.79L307.75 575.56L306.17 573.32L304.59 571.07L303.02 568.81L301.44 566.53L299.87 564.25L298.31 561.95L296.74 559.64L295.18 557.32L293.62 554.99L292.06 552.64L290.5 550.29L288.95 547.92L287.4 545.55L284.83 545.24L282.26 544.91L279.69 544.58L277.14 544.25L274.59 543.9L272.04 543.54L269.51 543.18L266.98 542.81L264.45 542.43L261.94 542.05L259.43 541.65L256.93 541.25L254.44 540.84L251.95 540.42L249.47 539.99L247 539.56L244.54 539.11L242.09 538.66L239.64 538.2L237.2 537.74L234.77 537.26L232.35 536.78L229.94 536.29L227.54 535.8L225.14 535.29L222.76 534.78L220.38 534.26L218.01 533.73L215.65 533.2L213.3 532.66L210.96 532.11L208.63 531.55L206.31 530.99L203.99 530.42L201.69 529.84L199.4 529.25L197.12 528.66L194.84 528.06L192.58 527.45L190.33 526.84L190.08 528.14L189.83 529.43ZM555.46 527.74L553.19 528.35L550.91 528.95L548.61 529.55L546.31 530.14L544 530.72L541.68 531.29L539.34 531.86L537 532.41L534.65 532.96L532.29 533.5L529.92 534.04L527.54 534.56L525.16 535.08L522.76 535.59L520.35 536.09L517.94 536.58L515.52 537.07L513.08 537.54L510.64 538.01L508.19 538.47L505.74 538.93L503.27 539.37L500.8 539.81L498.31 540.24L495.82 540.66L493.32 541.07L490.82 541.47L488.3 541.87L485.78 542.26L483.25 542.64L480.71 543.01L478.17 543.37L475.62 543.73L473.06 544.07L470.49 544.41L467.92 544.74L465.34 545.06L462.75 545.38L461.22 547.75L459.69 550.12L458.16 552.47L456.62 554.81L455.08 557.14L453.53 559.46L451.98 561.76L450.43 564.06L448.88 566.34L447.32 568.61L445.76 570.87L444.19 573.12L442.62 575.35L441.05 577.57L439.48 579.78L437.91 581.98L436.33 584.17L434.75 586.34L433.17 588.5L431.58 590.65L430 592.79L428.41 594.92L426.82 597.03L425.23 599.13L423.63 601.22L422.04 603.29L420.44 605.36L418.85 607.41L417.25 609.45L415.65 611.47L414.05 613.49L412.45 615.49L410.84 617.48L409.24 619.45L407.64 621.41L406.03 623.36L404.43 625.3L402.82 627.23L401.22 629.14L399.61 631.04L403.34 634.87L407.06 638.61L410.77 642.27L414.46 645.83L418.14 649.31L421.8 652.7L425.44 655.99L429.07 659.2L432.67 662.31L436.25 665.33L439.81 668.27L443.35 671.1L446.86 673.85L450.34 676.5L453.8 679.05L457.23 681.52L460.63 683.88L464 686.16L467.34 688.33L470.64 690.41L473.91 692.39L477.15 694.28L480.35 696.07L483.51 697.76L486.63 699.35L489.71 700.84L492.75 702.23L495.75 703.52L498.71 704.71L501.62 705.8L504.49 706.79L507.3 707.67L510.08 708.46L512.8 709.14L515.47 709.71L518.09 710.19L520.65 710.56L523.17 710.82L525.63 710.98L528.03 711.03L528.55 711.03L529.07 711.02L529.59 711.01L530.1 710.99L530.61 710.97L531.12 710.94L531.62 710.9L532.12 710.86L532.61 710.82L533.1 710.77L533.58 710.71L534.06 710.65L534.53 710.59L535 710.51L535.47 710.43L535.93 710.35L536.39 710.26L536.84 710.17L537.29 710.07L537.73 709.96L538.17 709.85L538.61 709.73L539.04 709.6L539.46 709.47L539.88 709.34L540.3 709.2L540.71 709.05L541.12 708.9L541.52 708.74L541.91 708.57L542.31 708.4L542.69 708.22L543.07 708.04L543.45 707.84L543.82 707.65L544.19 707.44L544.55 707.24L544.91 707.02L545.26 706.8L545.61 706.57L547.13 705.48L548.61 704.26L550.05 702.9L551.44 701.4L552.79 699.77L554.09 698.02L555.34 696.13L556.54 694.12L557.7 691.99L558.81 689.74L559.87 687.37L560.89 684.88L561.85 682.27L562.77 679.56L563.63 676.73L564.45 673.79L565.21 670.75L565.93 667.61L566.59 664.36L567.2 661.01L567.76 657.57L568.27 654.03L568.72 650.4L569.12 646.67L569.46 642.86L569.76 638.96L569.99 634.98L570.18 630.91L570.3 626.76L570.37 622.54L570.39 618.24L570.35 613.86L570.25 609.41L570.09 604.89L569.88 600.31L569.61 595.66L569.27 590.95L568.88 586.17L568.44 581.34L567.93 576.45L567.8 575.25L567.67 574.05L567.53 572.84L567.39 571.64L567.25 570.43L567.1 569.22L566.95 568L566.79 566.79L566.63 565.57L566.47 564.35L566.3 563.12L566.13 561.89L565.96 560.66L565.78 559.43L565.6 558.2L565.42 556.96L565.23 555.72L565.03 554.48L564.84 553.23L564.64 551.99L564.44 550.74L564.23 549.48L564.02 548.23L563.81 546.97L563.59 545.71L563.38 544.45L563.15 543.18L562.93 541.91L562.7 540.64L562.47 539.37L562.23 538.09L561.99 536.81L561.75 535.53L561.51 534.25L561.26 532.96L561.01 531.67L560.76 530.38L560.5 529.09L560.24 527.79L559.98 526.49L557.73 527.12L555.46 527.74ZM415.26 549.45L414.21 549.51L413.16 549.57L412.12 549.62L411.07 549.68L410.02 549.73L408.96 549.78L407.91 549.83L406.86 549.87L405.8 549.92L404.75 549.96L403.69 550L402.63 550.04L401.57 550.08L400.52 550.12L399.45 550.15L398.39 550.19L397.33 550.22L396.27 550.25L395.2 550.28L394.14 550.3L393.07 550.33L392.01 550.35L390.94 550.37L389.87 550.39L388.8 550.41L387.73 550.43L386.66 550.44L385.59 550.46L384.52 550.47L383.45 550.48L382.38 550.49L381.3 550.5L380.23 550.51L379.15 550.52L378.08 550.52L377 550.52L375.92 550.53L374.85 550.53L373.78 550.53L372.72 550.52L371.65 550.52L370.59 550.51L369.52 550.5L368.46 550.49L367.4 550.48L366.34 550.47L365.28 550.45L364.22 550.44L363.16 550.42L362.1 550.4L361.04 550.38L359.98 550.35L358.93 550.33L357.87 550.3L356.81 550.27L355.76 550.24L354.71 550.21L353.65 550.18L352.6 550.15L351.55 550.12L350.5 550.08L349.45 550.04L348.41 550.01L347.36 549.97L346.31 549.93L345.27 549.89L344.22 549.85L343.18 549.8L342.14 549.76L341.1 549.71L340.06 549.67L339.02 549.62L337.98 549.57L336.94 549.53L335.91 549.48L334.87 549.43L333.84 549.38L332.81 549.32L333.86 550.83L334.92 552.32L335.97 553.81L337.03 555.3L338.09 556.78L339.15 558.25L340.2 559.71L341.26 561.17L342.32 562.62L343.38 564.06L344.44 565.5L345.5 566.93L346.56 568.36L347.62 569.78L348.69 571.19L349.75 572.59L350.81 573.99L351.87 575.38L352.94 576.77L354 578.14L355.06 579.51L356.13 580.88L357.19 582.24L358.25 583.59L359.32 584.93L360.38 586.27L361.45 587.6L362.51 588.92L363.58 590.24L364.65 591.55L365.71 592.85L366.78 594.14L367.84 595.43L368.91 596.71L369.97 597.99L371.04 599.26L372.11 600.52L373.17 601.77L374.24 603.02L375.31 604.26L376.36 603.02L377.42 601.77L378.47 600.52L379.53 599.26L380.59 597.99L381.64 596.71L382.7 595.43L383.76 594.14L384.82 592.85L385.87 591.55L386.93 590.24L387.99 588.92L389.05 587.6L390.1 586.27L391.16 584.93L392.22 583.59L393.27 582.24L394.33 580.88L395.39 579.51L396.44 578.14L397.5 576.77L398.55 575.38L399.6 573.99L400.65 572.59L401.71 571.19L402.76 569.78L403.81 568.36L404.86 566.93L405.9 565.5L406.95 564.06L408 562.62L409.04 561.17L410.08 559.71L411.13 558.25L412.17 556.78L413.21 555.3L414.24 553.81L415.28 552.32L416.31 550.83L417.35 549.32L416.3 549.39L415.26 549.45ZM371.52 238.11L369.77 238.12L368.03 238.13L366.29 238.15L364.55 238.18L362.82 238.21L361.08 238.24L359.34 238.28L357.6 238.32L355.87 238.37L354.13 238.42L352.4 238.47L350.66 238.53L348.93 238.6L347.2 238.66L345.47 238.74L343.74 238.81L342.01 238.89L340.28 238.98L338.55 239.07L336.82 239.16L335.1 239.26L333.37 239.36L331.65 239.46L329.92 239.57L328.2 239.69L326.48 239.81L324.76 239.93L323.04 240.05L321.32 240.18L319.6 240.32L317.89 240.46L316.17 240.6L314.46 240.74L312.74 240.89L311.03 241.05L309.32 241.2L307.61 241.37L305.9 241.53L304.95 243.07L304 244.61L303.05 246.15L302.11 247.71L301.16 249.26L300.22 250.83L299.28 252.4L298.34 253.97L297.4 255.55L296.47 257.14L295.53 258.73L294.6 260.32L293.67 261.93L292.74 263.53L291.81 265.15L290.89 266.76L289.96 268.39L289.04 270.02L288.11 271.65L287.19 273.29L286.27 274.93L285.36 276.58L284.44 278.24L283.52 279.9L282.61 281.56L281.7 283.23L280.79 284.9L279.88 286.58L278.97 288.27L278.06 289.96L277.16 291.65L276.25 293.35L275.35 295.05L274.45 296.76L273.54 298.47L272.64 300.19L271.75 301.91L270.85 303.64L269.95 305.37L269.06 307.11L268.2 308.79L267.34 310.48L266.49 312.18L265.64 313.87L264.8 315.56L263.95 317.26L263.11 318.96L262.27 320.66L261.44 322.36L260.61 324.06L259.78 325.77L258.96 327.47L258.14 329.18L257.32 330.89L256.51 332.6L255.7 334.31L254.89 336.02L254.09 337.73L253.29 339.45L252.49 341.16L251.7 342.88L250.91 344.59L250.13 346.31L249.34 348.03L248.57 349.75L247.8 351.47L247.03 353.19L246.26 354.91L245.5 356.63L244.74 358.36L243.99 360.08L243.24 361.8L242.5 363.53L241.76 365.25L241.02 366.98L240.29 368.7L239.57 370.43L238.84 372.15L238.13 373.88L237.41 375.6L238.14 377.33L238.86 379.05L239.6 380.77L240.33 382.5L241.07 384.22L241.81 385.94L242.55 387.66L243.3 389.38L244.06 391.1L244.81 392.82L245.57 394.54L246.33 396.25L247.1 397.97L247.87 399.68L248.64 401.4L249.42 403.11L250.2 404.82L250.99 406.53L251.77 408.25L252.57 409.96L253.36 411.66L254.16 413.37L254.97 415.08L255.77 416.78L256.58 418.49L257.4 420.19L258.22 421.89L259.04 423.6L259.87 425.3L260.7 427L261.53 428.69L262.37 430.39L263.21 432.09L264.05 433.78L264.9 435.47L265.76 437.17L266.62 438.86L267.48 440.55L268.34 442.24L269.21 443.92L270.11 445.65L271 447.36L271.9 449.08L272.8 450.79L273.7 452.49L274.61 454.19L275.51 455.89L276.42 457.58L277.33 459.27L278.24 460.95L279.15 462.62L280.06 464.3L280.98 465.96L281.89 467.63L282.81 469.29L283.73 470.94L284.65 472.59L285.57 474.23L286.5 475.87L287.42 477.5L288.35 479.13L289.28 480.76L290.21 482.38L291.14 483.99L292.07 485.6L293 487.21L293.94 488.81L294.87 490.4L295.81 491.99L296.75 493.58L297.69 495.16L298.63 496.74L299.57 498.31L300.52 499.87L301.46 501.43L302.41 502.99L303.36 504.54L304.31 506.08L305.26 507.62L306.21 509.16L307.9 509.31L309.6 509.46L311.3 509.6L313.01 509.75L314.71 509.89L316.42 510.02L318.12 510.16L319.83 510.29L321.54 510.41L323.25 510.53L324.97 510.65L326.68 510.77L328.4 510.88L330.11 510.99L331.83 511.09L333.55 511.19L335.27 511.29L336.99 511.38L338.71 511.47L340.43 511.56L342.15 511.64L343.88 511.72L345.6 511.79L347.33 511.86L349.05 511.93L350.78 511.99L352.51 512.05L354.24 512.1L355.97 512.15L357.69 512.2L359.42 512.24L361.15 512.28L362.88 512.31L364.61 512.34L366.34 512.36L368.08 512.38L369.81 512.4L371.54 512.41L373.27 512.41L375 512.42L376.74 512.41L378.48 512.41L380.23 512.4L381.97 512.38L383.71 512.36L385.45 512.34L387.18 512.31L388.92 512.27L390.66 512.24L392.4 512.19L394.13 512.15L395.87 512.1L397.6 512.04L399.34 511.98L401.07 511.92L402.8 511.85L404.53 511.78L406.26 511.7L407.99 511.62L409.72 511.54L411.45 511.45L413.18 511.36L414.9 511.26L416.63 511.16L418.35 511.05L420.08 510.94L421.8 510.83L423.52 510.71L425.24 510.59L426.96 510.46L428.68 510.33L430.4 510.2L432.11 510.06L433.83 509.92L435.54 509.77L437.26 509.62L438.97 509.47L440.68 509.31L442.39 509.15L444.1 508.98L445.05 507.45L446 505.91L446.95 504.36L447.89 502.81L448.84 501.25L449.78 499.69L450.72 498.12L451.66 496.54L452.6 494.96L453.53 493.38L454.47 491.79L455.4 490.19L456.33 488.59L457.26 486.98L458.19 485.37L459.11 483.75L460.04 482.13L460.96 480.5L461.89 478.86L462.81 477.23L463.73 475.58L464.64 473.93L465.56 472.28L466.48 470.62L467.39 468.95L468.3 467.29L469.21 465.61L470.12 463.93L471.03 462.25L471.94 460.56L472.84 458.86L473.75 457.17L474.65 455.46L475.55 453.75L476.46 452.04L477.36 450.32L478.25 448.6L479.15 446.88L480.05 445.14L480.94 443.41L481.8 441.72L482.65 440.03L483.51 438.34L484.35 436.65L485.2 434.95L486.04 433.26L486.88 431.56L487.71 429.86L488.54 428.16L489.37 426.45L490.19 424.75L491.01 423.04L491.83 421.34L492.64 419.63L493.45 417.92L494.26 416.21L495.06 414.5L495.86 412.78L496.66 411.07L497.45 409.35L498.24 407.64L499.03 405.92L499.81 404.2L500.59 402.48L501.36 400.77L502.14 399.05L502.91 397.32L503.67 395.6L504.43 393.88L505.19 392.16L505.95 390.44L506.7 388.71L507.45 386.99L508.19 385.26L508.93 383.54L509.67 381.81L510.4 380.09L511.14 378.36L511.86 376.64L512.59 374.91L511.86 373.19L511.14 371.47L510.4 369.74L509.67 368.02L508.93 366.3L508.19 364.57L507.45 362.85L506.7 361.13L505.94 359.42L505.19 357.7L504.43 355.98L503.67 354.26L502.9 352.55L502.13 350.83L501.36 349.12L500.58 347.4L499.8 345.69L499.01 343.98L498.23 342.27L497.43 340.56L496.64 338.85L495.84 337.14L495.03 335.44L494.23 333.73L493.42 332.03L492.6 330.32L491.78 328.62L490.96 326.92L490.13 325.22L489.3 323.52L488.47 321.82L487.63 320.12L486.79 318.43L485.95 316.73L485.1 315.04L484.24 313.35L483.38 311.66L482.52 309.97L481.66 308.28L480.79 306.59L479.89 304.87L479 303.15L478.1 301.44L477.2 299.73L476.3 298.02L475.39 296.32L474.49 294.63L473.58 292.94L472.67 291.25L471.76 289.57L470.85 287.89L469.94 286.22L469.02 284.55L468.11 282.89L467.19 281.23L466.27 279.58L465.35 277.93L464.43 276.28L463.5 274.64L462.58 273.01L461.65 271.38L460.72 269.76L459.79 268.14L458.86 266.52L457.93 264.91L457 263.31L456.06 261.71L455.13 260.11L454.19 258.52L453.25 256.94L452.31 255.36L451.37 253.78L450.43 252.21L449.48 250.64L448.54 249.08L447.59 247.53L446.64 245.98L445.69 244.43L444.74 242.89L443.79 241.36L442.1 241.21L440.4 241.06L438.7 240.91L436.99 240.77L435.29 240.63L433.58 240.49L431.88 240.36L430.17 240.23L428.46 240.1L426.75 239.98L425.03 239.86L423.32 239.75L421.6 239.63L419.89 239.53L418.17 239.42L416.45 239.32L414.73 239.22L413.01 239.13L411.29 239.04L409.57 238.96L407.85 238.87L406.12 238.8L404.4 238.72L402.67 238.65L400.95 238.59L399.22 238.52L397.49 238.47L395.76 238.41L394.03 238.36L392.31 238.32L390.58 238.28L388.85 238.24L387.12 238.21L385.39 238.18L383.66 238.15L381.92 238.13L380.19 238.12L378.46 238.11L376.73 238.1L375 238.1L373.26 238.1L371.52 238.11ZM529.38 423.15L528.9 424.18L528.43 425.22L527.95 426.25L527.48 427.28L527 428.32L526.52 429.35L526.04 430.38L525.56 431.42L525.08 432.45L524.59 433.49L524.11 434.52L523.62 435.56L523.13 436.6L522.64 437.63L522.15 438.67L521.66 439.7L521.17 440.74L520.67 441.78L520.17 442.81L519.68 443.85L519.18 444.89L518.67 445.92L518.17 446.96L517.67 447.99L517.16 449.03L516.66 450.07L516.15 451.1L515.64 452.14L515.13 453.17L514.61 454.21L514.1 455.24L513.58 456.27L513.06 457.31L512.54 458.34L512.02 459.37L511.5 460.4L510.97 461.43L510.45 462.46L509.92 463.51L509.39 464.55L508.86 465.59L508.32 466.62L507.79 467.66L507.25 468.7L506.71 469.73L506.18 470.76L505.64 471.8L505.09 472.83L504.55 473.86L504.01 474.88L503.46 475.91L502.91 476.94L502.37 477.96L501.82 478.98L501.27 480.01L500.72 481.03L500.16 482.04L499.61 483.06L499.06 484.08L498.5 485.09L497.95 486.11L497.39 487.12L496.84 488.13L496.28 489.14L495.72 490.15L495.16 491.16L494.6 492.16L494.04 493.17L493.48 494.17L492.92 495.18L492.36 496.18L491.8 497.18L491.24 498.17L490.68 499.17L490.12 500.17L489.56 501.16L488.99 502.16L488.43 503.15L490.07 502.87L491.71 502.6L493.34 502.32L494.97 502.03L496.59 501.75L498.22 501.46L499.84 501.16L501.45 500.86L503.07 500.56L504.68 500.25L506.29 499.94L507.89 499.63L509.49 499.31L511.09 498.99L512.69 498.67L514.28 498.34L515.87 498.01L517.45 497.67L519.03 497.33L520.61 496.99L522.19 496.64L523.76 496.29L525.33 495.94L526.89 495.58L528.45 495.22L530.01 494.86L531.56 494.49L533.11 494.12L534.66 493.75L536.2 493.37L537.74 492.99L539.27 492.61L540.81 492.22L542.33 491.83L543.86 491.43L545.38 491.04L546.89 490.64L548.4 490.23L549.91 489.82L551.42 489.41L550.98 487.74L550.54 486.06L550.09 484.38L549.64 482.7L549.18 481.01L548.72 479.33L548.25 477.64L547.78 475.95L547.31 474.25L546.83 472.56L546.35 470.86L545.86 469.16L545.37 467.46L544.87 465.76L544.37 464.05L543.86 462.35L543.35 460.64L542.83 458.93L542.31 457.22L541.79 455.51L541.26 453.8L540.72 452.08L540.18 450.37L539.64 448.65L539.09 446.93L538.54 445.22L537.98 443.5L537.42 441.78L536.85 440.05L536.28 438.33L535.71 436.61L535.13 434.89L534.54 433.16L533.95 431.44L533.36 429.72L532.76 427.99L532.16 426.27L531.55 424.54L530.94 422.82L530.32 421.09L529.85 422.12L529.38 423.15ZM218.34 425.2L217.75 426.92L217.17 428.63L216.59 430.34L216.01 432.05L215.44 433.76L214.87 435.47L214.31 437.18L213.74 438.89L213.19 440.6L212.63 442.31L212.08 444.02L211.54 445.72L211 447.43L210.46 449.13L209.92 450.84L209.39 452.54L208.87 454.24L208.35 455.94L207.83 457.64L207.32 459.34L206.81 461.03L206.31 462.73L205.81 464.42L205.31 466.11L204.82 467.8L204.34 469.49L203.86 471.17L203.38 472.86L202.91 474.54L202.44 476.22L201.98 477.9L201.53 479.58L201.07 481.25L200.63 482.92L200.18 484.59L199.75 486.26L199.32 487.92L198.89 489.59L200.39 490L201.9 490.4L203.41 490.8L204.92 491.2L206.44 491.6L207.96 491.99L209.49 492.38L211.01 492.76L212.54 493.14L214.08 493.52L215.62 493.89L217.16 494.26L218.7 494.62L220.25 494.98L221.8 495.34L223.35 495.69L224.91 496.04L226.47 496.39L228.03 496.73L229.6 497.07L231.17 497.41L232.74 497.74L234.32 498.07L235.89 498.4L237.48 498.72L239.06 499.04L240.65 499.35L242.24 499.67L243.83 499.97L245.43 500.28L247.03 500.58L248.64 500.88L250.24 501.17L251.85 501.47L253.46 501.75L255.08 502.04L256.7 502.32L258.32 502.6L259.94 502.88L261.57 503.15L261.01 502.17L260.44 501.19L259.88 500.21L259.32 499.22L258.77 498.24L258.21 497.25L257.65 496.27L257.09 495.28L256.53 494.29L255.98 493.3L255.42 492.31L254.87 491.31L254.31 490.32L253.76 489.32L253.2 488.33L252.65 487.33L252.1 486.33L251.55 485.33L251 484.32L250.45 483.32L249.9 482.32L249.35 481.31L248.8 480.3L248.25 479.29L247.7 478.28L247.15 477.27L246.61 476.26L246.06 475.24L245.52 474.23L244.97 473.21L244.43 472.2L243.88 471.18L243.34 470.16L242.8 469.13L242.26 468.11L241.71 467.09L241.17 466.06L240.63 465.04L240.09 464.01L239.55 462.98L239.02 461.95L238.48 460.92L237.95 459.89L237.42 458.86L236.89 457.83L236.36 456.8L235.84 455.77L235.31 454.74L234.79 453.71L234.27 452.68L233.76 451.65L233.24 450.62L232.73 449.59L232.22 448.56L231.71 447.53L231.21 446.5L230.7 445.47L230.2 444.44L229.7 443.41L229.2 442.38L228.7 441.35L228.2 440.32L227.71 439.29L227.21 438.26L226.72 437.23L226.23 436.2L225.75 435.17L225.26 434.14L224.77 433.11L224.29 432.08L223.81 431.05L223.33 430.02L222.85 428.99L222.37 427.96L221.89 426.93L221.42 425.9L220.94 424.87L220.47 423.84L220 422.81L219.53 421.78L218.93 423.49L218.34 425.2ZM163.19 271.69L162.08 272.09L160.98 272.49L159.87 272.9L158.77 273.3L157.67 273.71L156.57 274.12L155.48 274.53L154.39 274.95L153.3 275.36L152.21 275.78L151.12 276.19L150.04 276.61L148.96 277.04L147.88 277.46L146.81 277.88L145.74 278.31L144.67 278.74L143.61 279.17L142.54 279.6L141.49 280.04L140.43 280.47L139.38 280.91L138.33 281.35L137.28 281.79L136.24 282.24L135.21 282.68L134.17 283.13L133.14 283.58L132.11 284.04L131.09 284.49L130.07 284.95L129.06 285.41L128.05 285.87L127.04 286.34L126.04 286.81L125.04 287.28L124.05 287.75L123.06 288.22L119.04 290.17L115.09 292.15L111.22 294.15L107.42 296.19L103.7 298.24L100.05 300.33L96.49 302.43L93.01 304.56L89.62 306.7L86.31 308.87L83.08 311.05L79.95 313.25L76.9 315.46L73.94 317.68L71.08 319.92L68.31 322.16L65.64 324.41L63.06 326.67L60.58 328.94L58.21 331.2L55.93 333.47L53.76 335.75L51.69 338.02L49.72 340.28L47.87 342.55L46.12 344.81L44.49 347.06L42.96 349.3L41.55 351.54L40.25 353.76L39.07 355.98L38.01 358.17L37.07 360.36L36.25 362.52L35.55 364.67L34.97 366.8L34.52 368.91L34.2 370.99L34 373.05L33.94 375.09L34 377.12L34.2 379.18L34.52 381.26L34.97 383.37L35.55 385.49L36.25 387.64L37.07 389.8L38.01 391.98L39.07 394.17L40.25 396.38L41.55 398.6L42.96 400.83L44.49 403.07L46.12 405.32L47.87 407.58L49.72 409.84L51.69 412.1L53.76 414.37L55.93 416.64L58.21 418.9L60.58 421.17L63.06 423.43L65.64 425.69L68.31 427.94L71.08 430.18L73.94 432.41L76.9 434.64L79.95 436.85L83.08 439.05L86.31 441.23L89.62 443.4L93.01 445.55L96.49 447.68L100.05 449.79L103.7 451.88L107.42 453.94L111.22 455.99L115.09 458L119.04 459.99L123.06 461.95L124.06 462.42L125.07 462.9L126.07 463.37L127.09 463.84L128.1 464.31L129.12 464.77L130.14 465.24L131.17 465.7L132.2 466.16L133.23 466.61L134.27 467.07L135.31 467.53L136.36 467.98L137.41 468.43L138.46 468.88L139.52 469.32L140.58 469.77L141.64 470.21L142.71 470.65L143.78 471.09L144.85 471.53L145.93 471.96L147.01 472.39L148.09 472.82L149.18 473.25L150.27 473.68L151.36 474.11L152.46 474.53L153.56 474.95L154.67 475.37L155.77 475.79L156.88 476.2L157.99 476.62L159.11 477.03L160.23 477.44L161.35 477.85L162.48 478.25L163.6 478.66L164.73 479.06L165.87 479.46L166.52 476.94L167.17 474.43L167.84 471.9L168.52 469.37L169.21 466.84L169.91 464.3L170.62 461.76L171.34 459.21L172.06 456.66L172.8 454.1L173.56 451.54L174.32 448.97L175.09 446.4L175.87 443.83L176.66 441.25L177.46 438.66L178.27 436.07L179.1 433.48L179.93 430.88L180.77 428.28L181.63 425.67L182.49 423.06L183.37 420.45L184.25 417.83L185.14 415.21L186.05 412.58L186.97 409.95L187.89 407.32L188.83 404.68L189.77 402.04L190.73 399.39L191.7 396.75L192.68 394.09L193.66 391.44L194.66 388.78L195.67 386.11L196.69 383.45L197.72 380.78L198.76 378.11L199.81 375.43L198.75 372.74L197.69 370.05L196.65 367.37L195.62 364.69L194.6 362.02L193.59 359.34L192.6 356.67L191.61 354.01L190.63 351.35L189.66 348.69L188.7 346.04L187.75 343.38L186.82 340.74L185.89 338.1L184.97 335.46L184.07 332.82L183.17 330.19L182.28 327.56L181.41 324.94L180.54 322.32L179.69 319.71L178.85 317.1L178.01 314.49L177.19 311.89L176.37 309.29L175.57 306.7L174.78 304.11L174 301.52L173.22 298.94L172.46 296.37L171.71 293.8L170.97 291.23L170.24 288.67L169.52 286.12L168.81 283.57L168.11 281.02L167.42 278.48L166.74 275.94L166.07 273.41L165.41 270.89L164.3 271.29L163.19 271.69ZM582.67 275.75L582.01 278.27L581.33 280.8L580.64 283.33L579.94 285.87L579.23 288.41L578.51 290.96L577.78 293.51L577.04 296.07L576.29 298.63L575.53 301.2L574.76 303.77L573.98 306.34L573.19 308.93L572.38 311.51L571.57 314.1L570.75 316.69L569.92 319.29L569.07 321.89L568.22 324.5L567.36 327.11L566.48 329.72L565.6 332.34L564.7 334.96L563.8 337.59L562.88 340.22L561.96 342.85L561.02 345.49L560.07 348.13L559.12 350.78L558.15 353.43L557.17 356.08L556.18 358.73L555.19 361.39L554.18 364.06L553.16 366.72L552.13 369.39L551.09 372.07L550.04 374.74L551.1 377.43L552.15 380.12L553.19 382.8L554.22 385.48L555.24 388.16L556.25 390.83L557.25 393.5L558.24 396.16L559.22 398.82L560.19 401.48L561.15 404.14L562.09 406.79L563.03 409.43L563.96 412.08L564.87 414.72L565.78 417.35L566.68 419.98L567.56 422.61L568.44 425.23L569.3 427.85L570.16 430.47L571 433.08L571.84 435.68L572.66 438.28L573.47 440.88L574.28 443.47L575.07 446.06L575.85 448.65L576.62 451.23L577.39 453.8L578.14 456.37L578.88 458.94L579.61 461.5L580.33 464.05L581.04 466.61L581.74 469.15L582.43 471.69L583.11 474.23L583.78 476.76L584.44 479.29L585.55 478.89L586.66 478.49L587.77 478.08L588.87 477.68L589.98 477.27L591.08 476.87L592.18 476.46L593.27 476.05L594.37 475.64L595.46 475.22L596.55 474.81L597.64 474.39L598.72 473.98L599.81 473.56L600.89 473.14L601.96 472.71L603.04 472.29L604.11 471.86L605.18 471.43L606.24 471L607.3 470.57L608.36 470.14L609.42 469.7L610.47 469.26L611.52 468.82L612.56 468.38L613.6 467.93L614.64 467.49L615.68 467.04L616.71 466.59L617.73 466.13L618.75 465.68L619.77 465.22L620.79 464.76L621.8 464.3L622.8 463.83L623.81 463.37L624.8 462.9L625.8 462.42L626.78 461.95L630.81 460L634.76 458.02L638.63 456.02L642.43 453.99L646.15 451.93L649.79 449.85L653.36 447.74L656.83 445.61L660.23 443.47L663.54 441.3L666.77 439.12L669.9 436.92L672.95 434.71L675.91 432.49L678.77 430.25L681.54 428.01L684.22 425.76L686.8 423.5L689.28 421.24L691.66 418.97L693.94 416.7L696.12 414.43L698.19 412.16L700.16 409.89L702.02 407.62L703.77 405.36L705.41 403.11L706.94 400.87L708.36 398.63L709.66 396.41L710.84 394.19L711.91 392L712.86 389.81L713.69 387.65L714.4 385.5L714.99 383.37L715.45 381.26L715.78 379.18L715.99 377.12L716.06 375.09L716 373.05L715.8 370.99L715.48 368.91L715.03 366.8L714.45 364.68L713.75 362.53L712.93 360.37L711.99 358.19L710.93 356L709.75 353.79L708.45 351.57L707.04 349.34L705.51 347.1L703.88 344.85L702.13 342.59L700.28 340.33L698.31 338.07L696.24 335.8L694.07 333.54L691.79 331.27L689.42 329L686.94 326.74L684.36 324.49L681.69 322.24L678.92 319.99L676.06 317.76L673.1 315.54L670.05 313.32L666.92 311.13L663.69 308.94L660.38 306.77L656.99 304.62L653.51 302.49L649.95 300.38L646.3 298.29L642.58 296.23L638.78 294.19L634.91 292.17L630.96 290.18L626.94 288.22L625.93 287.75L624.91 287.27L623.89 286.8L622.87 286.33L621.85 285.87L620.82 285.4L619.79 284.94L618.76 284.47L617.72 284.01L616.68 283.56L615.63 283.1L614.59 282.65L613.53 282.19L612.48 281.74L611.42 281.3L610.36 280.85L609.3 280.4L608.23 279.96L607.16 279.52L606.09 279.08L605.01 278.65L603.93 278.21L602.85 277.78L601.76 277.35L600.67 276.92L599.58 276.49L598.49 276.07L597.39 275.64L596.29 275.22L595.18 274.8L594.08 274.38L592.97 273.97L591.85 273.56L590.74 273.14L589.62 272.73L588.5 272.33L587.37 271.92L586.24 271.52L585.11 271.11L583.98 270.71L583.33 273.23L582.67 275.75ZM258.14 247.57L256.51 247.85L254.88 248.14L253.25 248.42L251.63 248.72L250.01 249.01L248.39 249.31L246.78 249.61L245.17 249.92L243.56 250.23L241.95 250.54L240.35 250.85L238.75 251.17L237.16 251.5L235.57 251.82L233.98 252.15L232.39 252.49L230.81 252.82L229.23 253.16L227.66 253.5L226.09 253.85L224.52 254.2L222.96 254.55L221.4 254.91L219.84 255.27L218.28 255.63L216.74 255.99L215.19 256.36L213.65 256.73L212.11 257.1L210.57 257.48L209.04 257.86L207.51 258.24L205.99 258.62L204.47 259.01L202.95 259.4L201.44 259.79L199.93 260.19L198.43 260.59L198.87 262.26L199.31 263.94L199.76 265.62L200.21 267.3L200.67 268.99L201.13 270.67L201.59 272.36L202.06 274.05L202.54 275.75L203.02 277.44L203.5 279.14L203.99 280.84L204.48 282.54L204.98 284.24L205.48 285.95L205.99 287.65L206.5 289.36L207.02 291.07L207.54 292.78L208.06 294.49L208.59 296.2L209.13 297.92L209.66 299.63L210.21 301.35L210.76 303.07L211.31 304.78L211.87 306.5L212.43 308.22L212.99 309.95L213.57 311.67L214.14 313.39L214.72 315.11L215.31 316.84L215.89 318.56L216.49 320.28L217.09 322.01L217.69 323.73L218.3 325.46L218.91 327.18L219.53 328.91L220 327.88L220.47 326.85L220.94 325.82L221.42 324.79L221.89 323.76L222.37 322.73L222.85 321.7L223.33 320.67L223.81 319.64L224.29 318.61L224.77 317.58L225.25 316.55L225.74 315.52L226.23 314.49L226.72 313.46L227.21 312.43L227.7 311.4L228.19 310.37L228.68 309.34L229.18 308.31L229.67 307.28L230.17 306.25L230.67 305.22L231.17 304.19L231.67 303.16L232.18 302.13L232.68 301.1L233.19 300.07L233.7 299.04L234.21 298.01L234.72 296.98L235.24 295.95L235.75 294.92L236.27 293.89L236.78 292.86L237.3 291.83L237.83 290.8L238.35 289.77L238.87 288.74L239.4 287.71L239.93 286.67L240.46 285.63L240.99 284.59L241.52 283.55L242.06 282.51L242.59 281.47L243.13 280.44L243.67 279.41L244.21 278.38L244.75 277.34L245.3 276.32L245.84 275.29L246.39 274.26L246.93 273.24L247.48 272.21L248.03 271.19L248.58 270.17L249.13 269.15L249.68 268.13L250.24 267.11L250.79 266.09L251.34 265.08L251.9 264.06L252.45 263.05L253.01 262.04L253.57 261.03L254.13 260.02L254.69 259.01L255.24 258.01L255.8 257L256.36 256L256.92 255L257.48 254L258.05 253L258.61 252L259.17 251L259.73 250L260.29 249.01L260.85 248.02L261.41 247.02L259.78 247.3L258.14 247.57ZM489.4 248.98L489.96 249.97L490.53 250.95L491.09 251.93L491.65 252.92L492.21 253.91L492.77 254.89L493.33 255.88L493.89 256.87L494.45 257.87L495.01 258.86L495.57 259.85L496.13 260.85L496.68 261.85L497.24 262.85L497.8 263.84L498.35 264.85L498.9 265.85L499.46 266.85L500.01 267.86L500.56 268.86L501.11 269.87L501.66 270.88L502.21 271.89L502.76 272.9L503.31 273.91L503.85 274.93L504.4 275.94L504.94 276.96L505.48 277.98L506.02 279L506.56 280.02L507.1 281.04L507.64 282.06L508.17 283.08L508.7 284.11L509.24 285.14L509.77 286.16L510.29 287.19L510.83 288.22L511.37 289.25L511.9 290.28L512.43 291.31L512.96 292.34L513.49 293.37L514.01 294.4L514.53 295.43L515.05 296.46L515.57 297.49L516.09 298.52L516.6 299.55L517.12 300.58L517.63 301.61L518.13 302.64L518.64 303.67L519.15 304.7L519.65 305.73L520.15 306.76L520.65 307.79L521.15 308.82L521.64 309.85L522.14 310.88L522.63 311.91L523.12 312.94L523.61 313.97L524.1 315L524.59 316.03L525.07 317.06L525.56 318.09L526.04 319.12L526.52 320.15L527 321.18L527.48 322.21L527.95 323.24L528.43 324.27L528.9 325.3L529.38 326.33L529.85 327.36L530.32 328.39L530.91 326.68L531.51 324.97L532.09 323.26L532.68 321.54L533.26 319.83L533.83 318.12L534.41 316.41L534.98 314.7L535.54 312.99L536.1 311.28L536.66 309.57L537.21 307.86L537.76 306.16L538.31 304.45L538.85 302.74L539.39 301.04L539.92 299.34L540.45 297.63L540.98 295.93L541.5 294.23L542.02 292.53L542.53 290.84L543.04 289.14L543.54 287.45L544.04 285.75L544.53 284.06L545.02 282.37L545.51 280.68L545.99 279L546.46 277.31L546.94 275.63L547.4 273.95L547.86 272.27L548.32 270.6L548.77 268.92L549.22 267.25L549.66 265.58L550.1 263.91L550.53 262.25L550.96 260.59L549.45 260.18L547.95 259.77L546.44 259.37L544.92 258.97L543.41 258.57L541.88 258.18L540.36 257.8L538.83 257.41L537.3 257.03L535.77 256.66L534.23 256.28L532.69 255.92L531.15 255.55L529.6 255.19L528.05 254.83L526.5 254.48L524.94 254.13L523.38 253.78L521.82 253.44L520.25 253.1L518.68 252.76L517.11 252.43L515.53 252.1L513.95 251.77L512.37 251.45L510.79 251.13L509.2 250.82L507.61 250.51L506.01 250.2L504.42 249.89L502.81 249.59L501.21 249.29L499.61 249L498 248.71L496.38 248.42L494.77 248.13L493.15 247.85L491.53 247.57L489.91 247.3L488.28 247.02L488.84 248L489.4 248.98ZM221.45 39.14L220.93 39.15L220.41 39.16L219.9 39.18L219.39 39.2L218.88 39.23L218.38 39.27L217.88 39.31L217.39 39.35L216.9 39.4L216.42 39.46L215.94 39.52L215.47 39.59L215 39.66L214.53 39.74L214.07 39.82L213.61 39.91L213.16 40L212.71 40.11L212.27 40.21L211.83 40.32L211.39 40.44L210.96 40.57L210.54 40.7L210.12 40.83L209.7 40.97L209.29 41.12L208.88 41.28L208.48 41.44L208.09 41.6L207.69 41.77L207.31 41.95L206.93 42.14L206.55 42.33L206.18 42.52L205.81 42.73L205.45 42.94L205.09 43.15L204.74 43.37L204.39 43.6L202.87 44.69L201.39 45.91L199.95 47.28L198.56 48.77L197.21 50.4L195.91 52.15L194.66 54.04L193.46 56.05L192.3 58.18L191.19 60.43L190.13 62.81L189.11 65.3L188.15 67.9L187.23 70.62L186.37 73.44L185.55 76.38L184.79 79.42L184.07 82.56L183.41 85.81L182.8 89.16L182.24 92.6L181.73 96.14L181.28 99.77L180.88 103.5L180.54 107.31L180.24 111.21L180.01 115.2L179.82 119.26L179.7 123.41L179.63 127.63L179.61 131.94L179.65 136.31L179.75 140.76L179.91 145.28L180.12 149.86L180.39 154.51L180.73 159.23L181.12 164L181.56 168.83L182.07 173.72L182.21 174.92L182.35 176.12L182.5 177.33L182.65 178.53L182.8 179.74L182.95 180.95L183.11 182.17L183.27 183.38L183.43 184.6L183.59 185.82L183.76 187.05L183.93 188.27L184.11 189.5L184.29 190.73L184.47 191.96L184.65 193.2L184.84 194.44L185.03 195.68L185.22 196.92L185.42 198.16L185.62 199.41L185.82 200.66L186.02 201.91L186.23 203.17L186.45 204.42L186.66 205.68L186.88 206.94L187.1 208.2L187.33 209.46L187.55 210.73L187.79 212L188.02 213.27L188.26 214.54L188.5 215.82L188.75 217.09L188.99 218.37L189.25 219.65L189.5 220.94L189.76 222.22L190.02 223.51L192.27 222.88L194.54 222.26L196.81 221.65L199.09 221.05L201.39 220.45L203.69 219.86L206 219.28L208.32 218.71L210.66 218.14L213 217.59L215.35 217.04L217.71 216.5L220.08 215.96L222.46 215.44L224.84 214.92L227.24 214.41L229.65 213.91L232.06 213.42L234.48 212.93L236.92 212.46L239.36 211.99L241.81 211.53L244.26 211.07L246.73 210.63L249.2 210.19L251.69 209.76L254.18 209.34L256.68 208.93L259.18 208.53L261.7 208.13L264.22 207.74L266.75 207.36L269.29 206.99L271.83 206.63L274.38 206.27L276.94 205.93L279.51 205.59L282.08 205.26L284.66 204.94L287.25 204.62L288.78 202.25L290.31 199.88L291.84 197.53L293.38 195.19L294.92 192.86L296.47 190.54L298.02 188.24L299.57 185.94L301.12 183.66L302.68 181.39L304.24 179.13L305.81 176.88L307.38 174.65L308.95 172.43L310.52 170.22L312.09 168.02L313.67 165.83L315.25 163.66L316.83 161.5L318.42 159.35L320 157.21L321.59 155.08L323.18 152.97L324.77 150.87L326.37 148.78L327.96 146.71L329.56 144.64L331.15 142.59L332.75 140.55L334.35 138.53L335.95 136.51L337.55 134.51L339.16 132.52L340.76 130.55L342.36 128.59L343.97 126.64L345.57 124.7L347.18 122.77L348.78 120.86L350.39 118.96L346.66 115.13L342.94 111.39L339.23 107.73L335.54 104.17L331.86 100.69L328.2 97.3L324.56 94.01L320.93 90.8L317.33 87.69L313.75 84.67L310.19 81.73L306.65 78.9L303.14 76.15L299.66 73.5L296.2 70.95L292.77 68.48L289.37 66.12L286 63.84L282.66 61.67L279.36 59.59L276.09 57.61L272.85 55.72L269.65 53.93L266.49 52.24L263.37 50.65L260.29 49.16L257.25 47.77L254.25 46.48L251.29 45.29L248.38 44.2L245.51 43.21L242.7 42.33L239.92 41.54L237.2 40.86L234.53 40.29L231.91 39.81L229.35 39.44L226.83 39.18L224.37 39.02L221.97 38.97L221.97 39.14L221.45 39.14ZM525 38.33L522.53 38.49L520.01 38.76L517.44 39.13L514.81 39.61L512.14 40.19L509.41 40.87L506.63 41.66L503.81 42.55L500.94 43.55L498.03 44.64L495.07 45.84L492.07 47.14L489.03 48.54L485.95 50.04L482.83 51.64L479.67 53.34L476.47 55.14L473.24 57.04L469.97 59.03L466.67 61.12L463.34 63.31L459.97 65.6L456.57 67.98L453.15 70.46L449.7 73.03L446.21 75.7L442.71 78.46L439.18 81.32L435.62 84.27L432.04 87.31L428.44 90.44L424.82 93.67L421.18 96.99L417.52 100.4L413.85 103.9L410.16 107.49L406.45 111.17L402.73 114.93L399 118.79L400.62 120.69L402.23 122.6L403.85 124.53L405.46 126.47L407.08 128.42L408.69 130.39L410.3 132.37L411.91 134.36L413.52 136.36L415.13 138.38L416.74 140.41L418.34 142.46L419.95 144.51L421.55 146.58L423.15 148.67L424.75 150.76L426.35 152.87L427.95 154.99L429.55 157.12L431.14 159.26L432.74 161.42L434.33 163.59L435.92 165.77L437.5 167.96L439.09 170.16L440.67 172.38L442.25 174.61L443.83 176.85L445.41 179.1L446.98 181.36L448.56 183.64L450.13 185.92L451.69 188.22L453.26 190.53L454.82 192.85L456.38 195.18L457.94 197.53L459.5 199.88L461.05 202.25L462.6 204.62L465.17 204.94L467.74 205.26L470.31 205.59L472.86 205.93L475.41 206.27L477.96 206.63L480.49 206.99L483.02 207.36L485.55 207.74L488.06 208.13L490.57 208.52L493.07 208.92L495.56 209.34L498.05 209.75L500.53 210.18L503 210.62L505.46 211.06L507.91 211.51L510.36 211.97L512.8 212.43L515.23 212.91L517.65 213.39L520.06 213.88L522.46 214.38L524.86 214.88L527.24 215.39L529.62 215.91L531.99 216.44L534.35 216.97L536.7 217.51L539.04 218.06L541.37 218.62L543.69 219.18L546.01 219.76L548.31 220.33L550.6 220.92L552.88 221.51L555.16 222.11L557.42 222.72L559.67 223.33L559.92 222.04L560.17 220.74L560.42 219.44L560.66 218.14L560.9 216.85L561.14 215.56L561.38 214.27L561.61 212.98L561.84 211.69L562.07 210.4L562.3 209.12L562.52 207.84L562.74 206.56L562.96 205.28L563.17 204L563.38 202.73L563.59 201.45L563.8 200.18L564 198.92L564.2 197.65L564.4 196.39L564.59 195.12L564.78 193.87L564.97 192.61L565.15 191.35L565.33 190.1L565.51 188.85L565.68 187.61L565.85 186.36L566.01 185.12L566.18 183.88L566.33 182.65L566.49 181.41L566.64 180.18L566.79 178.96L566.93 177.73L567.07 176.51L567.21 175.29L567.34 174.08L567.47 172.87L567.97 167.98L568.4 163.14L568.78 158.37L569.1 153.65L569.36 149L569.56 144.42L569.71 139.9L569.8 135.46L569.83 131.08L569.8 126.78L569.72 122.55L569.58 118.41L569.39 114.34L569.14 110.36L568.83 106.46L568.48 102.65L568.07 98.93L567.6 95.3L567.08 91.76L566.51 88.32L565.89 84.98L565.22 81.73L564.49 78.59L563.72 75.56L562.89 72.63L562.01 69.8L561.08 67.09L560.11 64.5L559.08 62.01L558.01 59.65L556.89 57.4L555.72 55.28L554.5 53.28L553.24 51.4L551.93 49.65L550.57 48.04L549.17 46.55L547.72 45.2L546.23 43.99L544.69 42.92L544.33 42.7L543.97 42.49L543.61 42.28L543.24 42.08L542.87 41.89L542.49 41.7L542.12 41.51L541.73 41.33L541.35 41.16L540.96 40.99L540.56 40.82L540.16 40.66L539.76 40.51L539.36 40.36L538.95 40.22L538.53 40.08L538.12 39.95L537.69 39.83L537.27 39.71L536.84 39.59L536.4 39.48L535.96 39.38L535.52 39.28L535.07 39.18L534.62 39.1L534.16 39.01L533.7 38.94L533.23 38.87L532.76 38.8L532.29 38.74L531.81 38.69L531.32 38.64L530.83 38.59L530.34 38.56L529.84 38.52L529.33 38.5L528.82 38.48L528.31 38.46L527.79 38.46L527.26 38.45L527.26 38.28L527.42 38.28L527.42 0.17L527.26 0.17L527.26 38.28L525 38.33ZM372.43 148.4L371.37 149.65L370.32 150.91L369.26 152.18L368.2 153.46L367.15 154.74L366.09 156.03L365.03 157.32L363.97 158.63L362.92 159.94L361.86 161.25L360.8 162.57L359.74 163.9L358.69 165.24L357.63 166.59L356.57 167.94L355.52 169.29L354.46 170.66L353.41 172.03L352.35 173.41L351.3 174.79L350.24 176.18L349.19 177.58L348.14 178.98L347.09 180.4L346.04 181.81L344.99 183.24L343.94 184.67L342.9 186.11L341.85 187.55L340.81 189L339.76 190.46L338.72 191.93L337.68 193.4L336.64 194.87L335.6 196.36L334.57 197.85L333.53 199.34L332.5 200.85L333.54 200.78L334.59 200.72L335.64 200.66L336.68 200.6L337.73 200.55L338.78 200.49L339.83 200.44L340.88 200.39L341.94 200.34L342.99 200.3L344.04 200.25L345.1 200.21L346.16 200.17L347.21 200.13L348.27 200.09L349.33 200.05L350.39 200.02L351.45 199.99L352.52 199.95L353.58 199.92L354.64 199.9L355.71 199.87L356.77 199.84L357.84 199.82L358.91 199.8L359.97 199.78L361.04 199.76L362.11 199.74L363.18 199.73L364.25 199.71L365.33 199.7L366.4 199.69L367.47 199.68L368.54 199.67L369.62 199.66L370.69 199.66L371.77 199.65L372.85 199.65L373.92 199.65L375 199.65L376.07 199.65L377.13 199.65L378.2 199.65L379.26 199.66L380.32 199.67L381.39 199.68L382.45 199.69L383.51 199.7L384.57 199.72L385.63 199.74L386.69 199.75L387.75 199.78L388.81 199.8L389.87 199.82L390.92 199.84L391.98 199.87L393.03 199.9L394.09 199.93L395.14 199.96L396.19 199.99L397.24 200.02L398.29 200.06L399.34 200.09L400.39 200.13L401.44 200.16L402.49 200.2L403.53 200.24L404.58 200.28L405.62 200.33L406.67 200.37L407.71 200.41L408.75 200.46L409.79 200.5L410.83 200.55L411.87 200.6L412.9 200.65L413.94 200.7L414.97 200.75L416.01 200.8L417.04 200.85L415.99 199.34L414.93 197.85L413.87 196.36L412.82 194.87L411.76 193.4L410.7 191.93L409.64 190.46L408.58 189L407.53 187.55L406.47 186.11L405.41 184.67L404.35 183.24L403.28 181.81L402.22 180.4L401.16 178.98L400.1 177.58L399.04 176.18L397.97 174.79L396.91 173.41L395.85 172.03L394.78 170.66L393.72 169.29L392.66 167.94L391.59 166.59L390.53 165.24L389.46 163.9L388.4 162.57L387.33 161.25L386.27 159.94L385.2 158.63L384.14 157.32L383.07 156.03L382 154.74L380.94 153.46L379.87 152.18L378.81 150.91L377.74 149.65L376.67 148.4L375.61 147.15L374.54 145.91L373.49 147.15L372.43 148.4Z" id="b1g4VVE7AY"></path><path d="M374.85 296.64C336.26 296.64 304.98 331.76 304.98 375.09C304.98 418.41 336.26 453.54 374.85 453.54C413.43 453.54 444.71 418.41 444.71 375.09C444.71 331.76 413.43 296.64 374.85 296.64Z" id="gqhy1rpzL"></path><path d="" id="f9uXEIY7F"></path></defs><g><g><g><use xlink:href="#b1g4VVE7AY" opacity="0.31" fill="#61dafb" fill-opacity="1"></use><g><use xlink:href="#b1g4VVE7AY" opacity="0.31" fill-opacity="0" stroke="#000000" stroke-width="1" stroke-opacity="0"></use></g></g><g><use xlink:href="#gqhy1rpzL" opacity="0.31" fill="#61dafb" fill-opacity="1"></use><g><use xlink:href="#gqhy1rpzL" opacity="0.31" fill-opacity="0" stroke="#000000" stroke-width="1" stroke-opacity="0"></use></g></g><g><use xlink:href="#f9uXEIY7F" opacity="0.31" fill="#61dafb" fill-opacity="1"></use><g><use xlink:href="#f9uXEIY7F" opacity="0.31" fill-opacity="0" stroke="#000000" stroke-width="1" stroke-opacity="0"></use></g></g></g></g></svg>