<svg xmlns="http://www.w3.org/2000/svg" xmlns:xlink="http://www.w3.org/1999/xlink" width="750" height="750"><defs><path d="M528.21.18l.95.01.94.03.94.04.93.06.93.06.92.08.92.09.92.09.91.12.91.12.9.14.89.14.9.16.88.17.89.19.87.19.88.21.86.22.87.23.85.25.86.25.84.27.84.28.84.3.83.3.83.32.82.33.81.34.81.36.8.37.8.38.79.39.78.41.78.42.78.43.76.44.76.46.76.47.75.48 3.17 2.2 3.04 2.41 2.92 2.63 2.8 2.84 2.67 3.05 2.55 3.25 2.43 3.45 2.3 3.65 2.17 3.85 2.05 4.03 1.93 4.22 1.81 4.41 1.68 4.58 1.56 4.76 1.44 4.94 1.31 5.1 1.19 5.27 1.07 5.43.94 5.6.83 5.75.7 5.9.58 6.05.46 6.2.33 6.33.22 6.48.09 6.61-.03 6.75-.15 6.87-.27 7-.39 7.12-.51 7.24-.63 7.35-.76 7.46-.87 7.57-.99 7.68-1.11 7.78-1.24 7.87-1.35 7.97-1.47 8.06-1.59 8.14 7.09 2.5 6.96 2.57 6.84 2.64 6.7 2.72 6.57 2.78 6.43 2.85 6.28 2.91 6.15 2.98 6 3.04 5.85 3.1 5.7 3.16 5.54 3.22 5.39 3.28 5.22 3.33 5.07 3.38 4.9 3.43 4.73 3.48 4.56 3.54 4.39 3.57 4.21 3.62 4.03 3.67 3.85 3.71 3.66 3.74 3.48 3.79 3.29 3.82 3.1 3.85 2.9 3.89 2.7 3.93 2.51 3.95 2.3 3.98 2.09 4.01 1.89 4.03 1.67 4.06 1.46 4.07 1.24 4.1 1.02 4.12.8 4.14.58 4.15.34 4.17.12 4.18-.12 4.16-.34 4.16-.57 4.14-.8 4.12-1.02 4.11-1.23 4.09-1.45 4.07-1.67 4.05-1.87 4.02-2.09 4-2.28 3.98-2.49 3.94-2.69 3.92-2.89 3.88-3.08 3.85-3.27 3.82-3.46 3.78-3.65 3.74-3.83 3.71-4 3.66-4.19 3.62-4.36 3.57-4.54 3.53-4.7 3.48-4.87 3.43-5.04 3.38-5.2 3.33-5.35 3.27-5.51 3.22-5.67 3.16-5.81 3.1-5.96 3.04-6.11 2.98-6.25 2.91-6.39 2.85-6.53 2.78-6.66 2.72-6.79 2.64-6.92 2.57-7.05 2.5 1.61 8.12 1.48 8.03 1.36 7.94 1.25 7.85 1.12 7.76 1.01 7.65.88 7.55.77 7.45.64 7.33.52 7.22.41 7.1.28 6.98.16 6.85.04 6.73-.08 6.6-.21 6.46-.32 6.32-.45 6.18-.57 6.04-.69 5.89-.81 5.73-.93 5.58-1.06 5.43-1.18 5.26-1.3 5.09-1.42 4.93-1.55 4.75-1.67 4.58-1.8 4.39-1.91 4.22-2.05 4.02-2.16 3.84-2.29 3.65-2.41 3.45-2.54 3.24-2.66 3.05-2.78 2.83-2.91 2.63-3.04 2.41-3.16 2.2-.76.48-.76.47-.77.46-.78.44-.78.44-.79.42-.79.4-.8.39-.81.39-.81.36-.81.36-.82.34-.83.33-.83.32-.84.31-.84.29-.85.28-.85.27-.86.26-.86.24-.87.24-.87.21-.88.21-.88.2-.89.18-.9.17-.89.16-.91.15-.91.14-.91.12-.92.11-.92.1-.93.09-.93.07-.94.07-.94.05-.95.04-.95.03-.96.02h-.96l-3.17-.06-3.23-.19-3.27-.31-3.32-.43-3.36-.55-3.4-.68-3.45-.79-3.48-.91-3.53-1.04-3.56-1.15-3.6-1.26-3.64-1.39-3.67-1.49-3.7-1.62-3.74-1.72-3.77-1.84-3.8-1.95-3.83-2.07-3.85-2.17-3.89-2.28-3.9-2.39-3.94-2.5-3.95-2.61-3.98-2.71-4-2.82-4.02-2.92-4.03-3.03-4.06-3.13-4.07-3.23-4.08-3.33-4.1-3.44-4.11-3.53-4.13-3.64-4.13-3.73-4.14-3.83-4.16-3.93-4.15-4.02-4.17-4.12-4.17-4.21-4.17-4.3-4.17 4.33-4.17 4.24-4.16 4.14-4.16 4.05-4.15 3.95-4.15 3.85-4.13 3.76-4.12 3.66-4.12 3.56-4.09 3.46-4.09 3.36-4.07 3.25-4.05 3.16-4.04 3.04-4.02 2.95-4 2.84-3.98 2.73-3.95 2.63-3.93 2.52-3.91 2.41-3.88 2.3-3.86 2.19-3.83 2.08-3.8 1.97-3.77 1.86-3.73 1.74-3.71 1.62-3.67 1.52-3.64 1.39-3.6 1.28-3.56 1.16-3.53 1.04-3.48.93-3.45.8-3.4.68-3.36.56-3.32.44-3.27.31-3.22.19-3.18.06-.96-.01-.96-.01-.95-.03-.94-.04-.95-.06-.93-.06-.94-.08-.92-.08-.93-.1-.91-.11-.92-.13-.9-.13-.91-.15-.89-.16-.9-.17-.88-.19-.88-.19-.88-.21-.87-.22-.87-.23-.86-.24-.85-.26-.85-.27-.84-.28-.84-.29-.83-.31-.83-.32-.82-.33-.82-.34-.81-.36-.8-.37-.8-.38-.79-.39-.78-.41-.78-.42-.78-.43-.76-.44-.76-.46-.76-.47-.75-.48-3.17-2.2-3.04-2.41-2.92-2.63-2.8-2.84-2.67-3.05-2.55-3.25-2.43-3.45-2.3-3.65-2.17-3.84-2.05-4.04-1.93-4.22-1.81-4.4-1.68-4.59-1.56-4.76-1.44-4.93-1.31-5.11-1.19-5.27-1.07-5.43-.94-5.6-.83-5.74-.7-5.91-.58-6.05-.46-6.19-.33-6.34-.22-6.48-.09-6.61.03-6.75.15-6.87.27-7 .39-7.12.51-7.24.63-7.35.76-7.46.87-7.57.99-7.68 1.11-7.78 1.24-7.87 1.35-7.97 1.47-8.06 1.59-8.14-7.09-2.5-6.96-2.57-6.84-2.64-6.7-2.71-6.57-2.79-6.43-2.85-6.28-2.91-6.15-2.98-6-3.04-5.85-3.1-5.7-3.16-5.54-3.22-5.39-3.28-5.22-3.33-5.07-3.38-4.9-3.43-4.73-3.48-4.56-3.53-4.39-3.58-4.21-3.62-4.03-3.67-3.85-3.7-3.66-3.75-3.48-3.78-3.29-3.83-3.1-3.85-2.9-3.89-2.7-3.92-2.51-3.96-2.3-3.98-2.09-4-1.89-4.04-1.67-4.05-1.46-4.08-1.24-4.1-1.02-4.12-.8-4.14-.58-4.15-.34-4.17-.12-4.17.12-4.17.34-4.15.57-4.14.8-4.13 1.02-4.1 1.23-4.09 1.45-4.07 1.67-4.04 1.88-4.02 2.08-4 2.29-3.97 2.49-3.94 2.69-3.91 2.89-3.88 3.08-3.85 3.28-3.81 3.46-3.78 3.65-3.73 3.84-3.7 4.01-3.66 4.2-3.62 4.37-3.57 4.54-3.52 4.71-3.48 4.88-3.43 5.04-3.38 5.21-3.33 5.37-3.27 5.52-3.22 5.68-3.17 5.82-3.1 5.98-3.04 6.12-2.99 6.27-2.92 6.4-2.85 6.55-2.79 6.68-2.72 6.81-2.65 6.94-2.58 7.07-2.51-1.6-8.12-1.48-8.04-1.37-7.94-1.24-7.85-1.13-7.76-1-7.65-.89-7.55-.76-7.44-.64-7.34-.53-7.21-.4-7.1-.28-6.98-.16-6.86-.04-6.73.08-6.59.2-6.47.33-6.32.44-6.18.57-6.04.69-5.89.81-5.73.94-5.58 1.05-5.43 1.18-5.26 1.31-5.09 1.42-4.92 1.55-4.76 1.67-4.57 1.79-4.4 1.92-4.22 2.04-4.02 2.17-3.84 2.28-3.65 2.42-3.44 2.53-3.25 2.66-3.05 2.79-2.83 2.91-2.63 3.03-2.41 3.16-2.2.76-.48.77-.47.77-.46.78-.44.78-.43.79-.42.79-.41.8-.39.8-.38.81-.37.82-.36.82-.34.82-.33.84-.32.83-.31.85-.29.84-.28.86-.27.85-.26.87-.24.86-.23.88-.22.88-.21.88-.2.89-.18.89-.17.9-.16.9-.15.91-.13.92-.13.91-.11.93-.1.93-.09.93-.07.94-.07.94-.05.94-.04.96-.03.95-.02h.96V.69l3.18.06 3.23.19 3.27.31 3.31.43 3.36.55 3.41.68 3.44.79 3.49.91 3.52 1.04 3.57 1.15 3.6 1.26 3.63 1.39 3.67 1.49 3.71 1.62 3.74 1.72 3.77 1.84 3.8 1.95 3.82 2.07 3.86 2.17 3.88 2.28 3.91 2.39 3.93 2.5 3.96 2.61L309 34.8l4 2.82 4.02 2.92 4.04 3.03 4.05 3.13 4.07 3.23 4.09 3.33 4.1 3.44 4.11 3.53 4.12 3.64 4.14 3.73 4.14 3.83 4.15 3.93 4.16 4.02 4.16 4.12 4.17 4.21 4.17 4.3 4.18-4.33 4.17-4.24 4.16-4.14 4.16-4.05 4.15-3.95 4.14-3.85 4.14-3.76 4.12-3.66 4.11-3.56 4.1-3.46 4.09-3.36 4.07-3.25 4.05-3.16 4.04-3.04 4.02-2.95 3.99-2.84 3.98-2.73 3.96-2.63 3.93-2.52 3.91-2.41 3.88-2.3 3.86-2.19 3.82-2.08 3.8-1.97 3.77-1.86 3.74-1.74 3.7-1.62 3.67-1.52 3.64-1.39 3.6-1.28 3.57-1.16 3.52-1.04 3.49-.93 3.44-.8 3.41-.68 3.36-.56 3.31-.44 3.27-.31 3.23-.19 3.18-.06v.17l.79.01zM189.83 529.43l-.25 1.3-.24 1.3-.24 1.29-.24 1.29-.24 1.29-.23 1.29-.23 1.29-.23 1.29-.23 1.28-.22 1.28-.22 1.28-.22 1.28-.21 1.28-.21 1.27-.21 1.28-.21 1.27-.2 1.27-.2 1.26-.2 1.27-.19 1.26-.19 1.26-.19 1.25-.18 1.26-.18 1.25-.18 1.25-.17 1.25-.17 1.24-.16 1.24-.17 1.24-.15 1.24-.16 1.23-.15 1.23-.15 1.23-.14 1.22-.14 1.22-.14 1.22-.13 1.21-.13 1.22-.5 4.89-.43 4.83-.38 4.77-.32 4.72-.26 4.65-.2 4.58-.15 4.52-.09 4.45-.03 4.37.03 4.3.08 4.23.14 4.14.19 4.07.25 3.98.31 3.9.35 3.81.41 3.72.47 3.63.52 3.54.57 3.44.62 3.34.67 3.25.73 3.14.77 3.03.83 2.94.88 2.82.93 2.71.97 2.6 1.03 2.48 1.07 2.36 1.12 2.25 1.17 2.12 1.22 2.01 1.26 1.87 1.31 1.75 1.36 1.61 1.4 1.49 1.45 1.35 1.49 1.21 1.54 1.08.35.21.35.21.35.21.36.2.37.2.37.19.37.18.38.18.38.18.39.17.39.16.39.16.4.16.41.15.41.14.41.14.42.13.42.13.43.12.43.12.43.12.44.1.45.11.44.1.45.09.46.09.46.08.47.08.47.07.47.06.48.07.48.05.48.05.49.05.5.04.49.04.5.03.51.02.51.03.51.01 2.42-.05 2.47-.16 2.52-.27 2.57-.37 2.63-.48 2.67-.58 2.73-.68 2.78-.79 2.82-.89 2.87-.99 2.91-1.1 2.96-1.2 3-1.3 3.04-1.4 3.08-1.5 3.12-1.6 3.16-1.7 3.2-1.8 3.23-1.89 3.27-2 3.3-2.09 3.33-2.19 3.37-2.29 3.4-2.38 3.42-2.48 3.45-2.57 3.49-2.67 3.5-2.76 3.53-2.86 3.56-2.95 3.58-3.04 3.6-3.13 3.62-3.23 3.64-3.32 3.66-3.41 3.67-3.5 3.69-3.59 3.71-3.67 3.72-3.77 3.73-3.86-1.62-1.9-1.61-1.91-1.62-1.93-1.61-1.94-1.62-1.95-1.61-1.97-1.61-1.98-1.61-1.99-1.61-2-1.61-2.02-1.61-2.03-1.6-2.05-1.61-2.05-1.6-2.07-1.6-2.08-1.6-2.1-1.6-2.1-1.6-2.12-1.6-2.14-1.59-2.14-1.6-2.16-1.59-2.16-1.59-2.18-1.58-2.2-1.59-2.2-1.58-2.22-1.58-2.23-1.58-2.24-1.58-2.25-1.57-2.26-1.58-2.28-1.57-2.28-1.56-2.3-1.57-2.31-1.56-2.32-1.56-2.33-1.56-2.35-1.56-2.35-1.55-2.37-1.55-2.37-2.57-.31-2.57-.33-2.57-.33-2.55-.33-2.55-.35-2.55-.36-2.53-.36-2.53-.37-2.53-.38-2.51-.38-2.51-.4-2.5-.4-2.49-.41-2.49-.42-2.48-.43-2.47-.43-2.46-.45-2.45-.45-2.45-.46-2.44-.46-2.43-.48-2.42-.48-2.41-.49-2.4-.49-2.4-.51-2.38-.51-2.38-.52-2.37-.53-2.36-.53-2.35-.54-2.34-.55-2.33-.56-2.32-.56-2.32-.57-2.3-.58-2.29-.59-2.28-.59-2.28-.6-2.26-.61-2.25-.61-.25 1.3-.25 1.29zm365.63-1.69l-2.27.61-2.28.6-2.3.6-2.3.59-2.31.58-2.32.57-2.34.57-2.34.55-2.35.55-2.36.54-2.37.54-2.38.52-2.38.52-2.4.51-2.41.5-2.41.49-2.42.49-2.44.47-2.44.47-2.45.46-2.45.46-2.47.44-2.47.44-2.49.43-2.49.42-2.5.41-2.5.4-2.52.4-2.52.39-2.53.38-2.54.37-2.54.36-2.55.36-2.56.34-2.57.34-2.57.33-2.58.32-2.59.32-1.53 2.37-1.53 2.37-1.53 2.35-1.54 2.34-1.54 2.33-1.55 2.32-1.55 2.3-1.55 2.3-1.55 2.28-1.56 2.27-1.56 2.26-1.57 2.25-1.57 2.23-1.57 2.22-1.57 2.21-1.57 2.2-1.58 2.19-1.58 2.17-1.58 2.16-1.59 2.15-1.58 2.14-1.59 2.13-1.59 2.11-1.59 2.1-1.6 2.09-1.59 2.07-1.6 2.07-1.59 2.05-1.6 2.04-1.6 2.02-1.6 2.02-1.6 2-1.61 1.99-1.6 1.97-1.6 1.96-1.61 1.95-1.6 1.94-1.61 1.93-1.6 1.91-1.61 1.9 3.73 3.83 3.72 3.74 3.71 3.66 3.69 3.56 3.68 3.48 3.66 3.39 3.64 3.29 3.63 3.21 3.6 3.11 3.58 3.02 3.56 2.94 3.54 2.83 3.51 2.75 3.48 2.65 3.46 2.55 3.43 2.47 3.4 2.36 3.37 2.28 3.34 2.17 3.3 2.08 3.27 1.98 3.24 1.89 3.2 1.79 3.16 1.69 3.12 1.59 3.08 1.49 3.04 1.39 3 1.29 2.96 1.19 2.91 1.09 2.87.99 2.81.88 2.78.79 2.72.68 2.67.57 2.62.48 2.56.37 2.52.26 2.46.16 2.4.05h.52l.52-.01.52-.01.51-.02.51-.02.51-.03.5-.04.5-.04.49-.04.49-.05.48-.06.48-.06.47-.06.47-.08.47-.08.46-.08.46-.09.45-.09.45-.1.44-.11.44-.11.44-.12.43-.13.42-.13.42-.13.42-.14.41-.15.41-.15.4-.16.39-.17.4-.17.38-.18.38-.18.38-.2.37-.19.37-.21.36-.2.36-.22.35-.22.35-.23 1.52-1.09 1.48-1.22 1.44-1.36 1.39-1.5 1.35-1.63 1.3-1.75 1.25-1.89 1.2-2.01 1.16-2.13 1.11-2.25 1.06-2.37 1.02-2.49.96-2.61.92-2.71.86-2.83.82-2.94.76-3.04.72-3.14.66-3.25.61-3.35.56-3.44.51-3.54.45-3.63.4-3.73.34-3.81.3-3.9.23-3.98.19-4.07.12-4.15.07-4.22.02-4.3-.04-4.38-.1-4.45-.16-4.52-.21-4.58-.27-4.65-.34-4.71-.39-4.78-.44-4.83-.51-4.89-.13-1.2-.13-1.2-.14-1.21-.14-1.2-.14-1.21-.15-1.21-.15-1.22-.16-1.21-.16-1.22-.16-1.22-.17-1.23-.17-1.23-.17-1.23-.18-1.23-.18-1.23-.18-1.24-.19-1.24-.2-1.24-.19-1.25-.2-1.24-.2-1.25-.21-1.26-.21-1.25-.21-1.26-.22-1.26-.21-1.26-.23-1.27-.22-1.27-.23-1.27-.23-1.27-.24-1.28-.24-1.28-.24-1.28-.24-1.28-.25-1.29-.25-1.29-.25-1.29-.26-1.29-.26-1.3-.26-1.3-2.25.63-2.27.62zm-140.2 21.71l-1.05.06-1.05.06-1.04.05-1.05.06-1.05.05-1.06.05-1.05.05-1.05.04-1.06.05-1.05.04-1.06.04-1.06.04-1.06.04-1.05.04-1.07.03-1.06.04-1.06.03-1.06.03-1.07.03-1.06.02-1.07.03-1.06.02-1.07.02-1.07.02-1.07.02-1.07.02-1.07.01-1.07.02-1.07.01-1.07.01-1.07.01-1.08.01-1.07.01-1.08.01H377l-1.08.01h-2.14l-1.06-.01h-1.07l-1.06-.01-1.07-.01-1.06-.01-1.06-.01-1.06-.01-1.06-.02-1.06-.01-1.06-.02-1.06-.02-1.06-.02-1.06-.03-1.05-.02-1.06-.03-1.06-.03-1.05-.03-1.05-.03-1.06-.03-1.05-.03-1.05-.03-1.05-.04-1.05-.04-1.04-.03-1.05-.04-1.05-.04-1.04-.04-1.05-.04-1.04-.05-1.04-.04-1.04-.05-1.04-.04-1.04-.05-1.04-.05-1.04-.04-1.03-.05-1.04-.05-1.03-.05-1.03-.06 1.05 1.51 1.06 1.49 1.05 1.49 1.06 1.49 1.06 1.48 1.06 1.47 1.05 1.46 1.06 1.46 1.06 1.45 1.06 1.44 1.06 1.44 1.06 1.43 1.06 1.43 1.06 1.42 1.07 1.41 1.06 1.4 1.06 1.4 1.06 1.39 1.07 1.39 1.06 1.37 1.06 1.37 1.07 1.37 1.06 1.36 1.06 1.35 1.07 1.34 1.06 1.34 1.07 1.33 1.06 1.32 1.07 1.32 1.07 1.31 1.06 1.3 1.07 1.29 1.06 1.29 1.07 1.28 1.06 1.28 1.07 1.27 1.07 1.26 1.06 1.25 1.07 1.25 1.07 1.24 1.05-1.24 1.06-1.25 1.05-1.25 1.06-1.26 1.06-1.27 1.05-1.28 1.06-1.28 1.06-1.29 1.06-1.29 1.05-1.3 1.06-1.31 1.06-1.32 1.06-1.32 1.05-1.33 1.06-1.34 1.06-1.34 1.05-1.35 1.06-1.36 1.06-1.37 1.05-1.37 1.06-1.37 1.05-1.39 1.05-1.39 1.05-1.4 1.06-1.4 1.05-1.41 1.05-1.42 1.05-1.43 1.04-1.43 1.05-1.44 1.05-1.44 1.04-1.45 1.04-1.46 1.05-1.46 1.04-1.47 1.04-1.48 1.03-1.49 1.04-1.49 1.03-1.49 1.04-1.51-1.05.07-1.04.06zm-43.74-311.34l-1.75.01-1.74.01-1.74.02-1.74.03-1.73.03-1.74.03-1.74.04-1.74.04-1.73.05-1.74.05-1.73.05-1.74.06-1.73.07-1.73.06-1.73.08-1.73.07-1.73.08-1.73.09-1.73.09-1.73.09-1.72.1-1.73.1-1.72.1-1.73.11-1.72.12-1.72.12-1.72.12-1.72.12-1.72.13-1.72.14-1.71.14-1.72.14-1.71.14-1.72.15-1.71.16-1.71.15-1.71.17-1.71.16-.95 1.54-.95 1.54-.95 1.54-.94 1.56-.95 1.55-.94 1.57-.94 1.57-.94 1.57-.94 1.58-.93 1.59-.94 1.59-.93 1.59-.93 1.61-.93 1.6-.93 1.62-.92 1.61-.93 1.63-.92 1.63-.93 1.63-.92 1.64-.92 1.64-.91 1.65-.92 1.66-.92 1.66-.91 1.66-.91 1.67-.91 1.67-.91 1.68-.91 1.69-.91 1.69-.9 1.69-.91 1.7-.9 1.7-.9 1.71-.91 1.71-.9 1.72-.89 1.72-.9 1.73-.9 1.73-.89 1.74-.86 1.68-.86 1.69-.85 1.7-.85 1.69-.84 1.69-.85 1.7-.84 1.7-.84 1.7-.83 1.7-.83 1.7-.83 1.71-.82 1.7-.82 1.71-.82 1.71-.81 1.71-.81 1.71-.81 1.71-.8 1.71-.8 1.72-.8 1.71-.79 1.72-.79 1.71-.78 1.72-.79 1.72-.77 1.72-.77 1.72-.77 1.72-.77 1.72-.76 1.72-.76 1.73-.75 1.72-.75 1.72-.74 1.73-.74 1.72-.74 1.73-.73 1.72-.72 1.73-.73 1.72-.71 1.73-.72 1.72.73 1.73.72 1.72.74 1.72.73 1.73.74 1.72.74 1.72.74 1.72.75 1.72.76 1.72.75 1.72.76 1.72.76 1.71.77 1.72.77 1.71.77 1.72.78 1.71.78 1.71.79 1.71.78 1.72.8 1.71.79 1.7.8 1.71.81 1.71.8 1.7.81 1.71.82 1.7.82 1.7.82 1.71.83 1.7.83 1.7.83 1.69.84 1.7.84 1.7.84 1.69.85 1.69.86 1.7.86 1.69.86 1.69.86 1.69.87 1.68.9 1.73.89 1.71.9 1.72.9 1.71.9 1.7.91 1.7.9 1.7.91 1.69.91 1.69.91 1.68.91 1.67.91 1.68.92 1.66.91 1.67.92 1.66.92 1.65.92 1.65.92 1.64.93 1.64.92 1.63.93 1.63.93 1.63.93 1.62.93 1.61.93 1.61.93 1.61.94 1.6.93 1.59.94 1.59.94 1.59.94 1.58.94 1.58.94 1.57.95 1.56.94 1.56.95 1.56.95 1.55.95 1.54.95 1.54.95 1.54 1.69.15 1.7.15 1.7.14 1.71.15 1.7.14 1.71.13 1.7.14 1.71.13 1.71.12 1.71.12 1.72.12 1.71.12 1.72.11 1.71.11 1.72.1 1.72.1 1.72.1 1.72.09 1.72.09 1.72.09 1.72.08 1.73.08 1.72.07 1.73.07 1.72.07 1.73.06 1.73.06 1.73.05 1.73.05 1.72.05 1.73.04 1.73.04 1.73.03 1.73.03 1.73.02 1.74.02 1.73.02 1.73.01h1.73l1.73.01 1.74-.01h1.74l1.75-.01 1.74-.02 1.74-.02 1.74-.02 1.73-.03 1.74-.04 1.74-.03 1.74-.05 1.73-.04 1.74-.05 1.73-.06 1.74-.06 1.73-.06 1.73-.07 1.73-.07 1.73-.08 1.73-.08 1.73-.08 1.73-.09 1.73-.09 1.72-.1 1.73-.1 1.72-.11 1.73-.11 1.72-.11 1.72-.12 1.72-.12 1.72-.13 1.72-.13 1.72-.13 1.71-.14 1.72-.14 1.71-.15 1.72-.15 1.71-.15 1.71-.16 1.71-.16 1.71-.17.95-1.53.95-1.54.95-1.55.94-1.55.95-1.56.94-1.56.94-1.57.94-1.58.94-1.58.93-1.58.94-1.59.93-1.6.93-1.6.93-1.61.93-1.61.92-1.62.93-1.62.92-1.63.93-1.64.92-1.63.92-1.65.91-1.65.92-1.65.92-1.66.91-1.67.91-1.66.91-1.68.91-1.68.91-1.68.91-1.69.9-1.7.91-1.69.9-1.71.9-1.71.91-1.71.9-1.72.89-1.72.9-1.72.9-1.74.89-1.73.86-1.69.85-1.69.86-1.69.84-1.69.85-1.7.84-1.69.84-1.7.83-1.7.83-1.7.83-1.71.82-1.7.82-1.71.82-1.7.81-1.71.81-1.71.81-1.71.8-1.71.8-1.72.8-1.71.79-1.72.79-1.71.79-1.72.78-1.72.78-1.72.77-1.71.78-1.72.77-1.73.76-1.72.76-1.72.76-1.72.76-1.72.75-1.73.75-1.72.74-1.73.74-1.72.74-1.73.73-1.72.74-1.73.72-1.72.73-1.73-.73-1.72-.72-1.72-.74-1.73-.73-1.72-.74-1.72-.74-1.73-.74-1.72-.75-1.72-.76-1.71-.75-1.72-.76-1.72-.76-1.72-.77-1.71-.77-1.72-.77-1.71-.78-1.72-.78-1.71-.79-1.71-.78-1.71-.8-1.71-.79-1.71-.8-1.71-.81-1.7-.8-1.71-.81-1.7-.82-1.71-.82-1.7-.82-1.7-.83-1.7-.83-1.7-.83-1.7-.84-1.7-.84-1.69-.84-1.7-.85-1.69-.86-1.69-.86-1.69-.86-1.69-.86-1.69-.87-1.69-.9-1.72-.89-1.72-.9-1.71-.9-1.71-.9-1.71-.91-1.7-.9-1.69-.91-1.69-.91-1.69-.91-1.68-.91-1.68-.91-1.67-.92-1.67-.91-1.66-.92-1.66-.92-1.65-.92-1.65-.92-1.65-.93-1.64-.92-1.63-.93-1.63-.93-1.62-.93-1.62-.93-1.62-.93-1.61-.93-1.6-.94-1.6-.93-1.6-.94-1.59-.94-1.58-.94-1.58-.94-1.58-.94-1.57-.95-1.57-.94-1.56-.95-1.55-.95-1.55-.95-1.55-.95-1.54-.95-1.53-1.69-.15-1.7-.15-1.7-.15-1.71-.14-1.7-.14-1.71-.14-1.7-.13-1.71-.13-1.71-.13-1.71-.12-1.72-.12-1.71-.11-1.72-.12-1.71-.1-1.72-.11-1.72-.1-1.72-.1-1.72-.09-1.72-.09-1.72-.08-1.72-.09-1.73-.07-1.72-.08-1.73-.07-1.72-.06-1.73-.07-1.73-.05-1.73-.06-1.73-.05-1.72-.04-1.73-.04-1.73-.04-1.73-.03-1.73-.03-1.73-.03-1.74-.02-1.73-.01-1.73-.01-1.73-.01H373.26l-1.74.01zm157.86 185.04l-.48 1.03-.47 1.04-.48 1.03-.47 1.03-.48 1.04-.48 1.03-.48 1.03-.48 1.04-.48 1.03-.49 1.04-.48 1.03-.49 1.04-.49 1.04-.49 1.03-.49 1.04-.49 1.03-.49 1.04-.5 1.04-.5 1.03-.49 1.04-.5 1.04-.51 1.03-.5 1.04-.5 1.03-.51 1.04-.5 1.04-.51 1.03-.51 1.04-.51 1.03-.52 1.04-.51 1.03-.52 1.03-.52 1.04-.52 1.03-.52 1.03-.52 1.03-.53 1.03-.52 1.03-.53 1.05-.53 1.04-.53 1.04-.54 1.03-.53 1.04-.54 1.04-.54 1.03-.53 1.03-.54 1.04-.55 1.03-.54 1.03-.54 1.02-.55 1.03-.55 1.03-.54 1.02-.55 1.02-.55 1.03-.55 1.02-.56 1.01-.55 1.02-.55 1.02-.56 1.01-.55 1.02-.56 1.01-.55 1.01-.56 1.01-.56 1.01-.56 1.01-.56 1-.56 1.01-.56 1-.56 1.01-.56 1-.56 1-.56.99-.56 1-.56 1-.56.99-.57 1-.56.99 1.64-.28 1.64-.27 1.63-.28 1.63-.29 1.62-.28 1.63-.29 1.62-.3 1.61-.3 1.62-.3 1.61-.31 1.61-.31 1.6-.31 1.6-.32 1.6-.32 1.6-.32 1.59-.33 1.59-.33 1.58-.34 1.58-.34 1.58-.34 1.58-.35 1.57-.35 1.57-.35 1.56-.36 1.56-.36 1.56-.36 1.55-.37 1.55-.37 1.55-.37 1.54-.38 1.54-.38 1.53-.38 1.54-.39 1.52-.39 1.53-.4 1.52-.39 1.51-.4 1.51-.41 1.51-.41 1.51-.41-.44-1.67-.44-1.68-.45-1.68-.45-1.68-.46-1.69-.46-1.68-.47-1.69-.47-1.69-.47-1.7-.48-1.69-.48-1.7-.49-1.7-.49-1.7-.5-1.7-.5-1.71-.51-1.7-.51-1.71-.52-1.71-.52-1.71-.52-1.71-.53-1.71-.54-1.72-.54-1.71-.54-1.72-.55-1.72-.55-1.71-.56-1.72-.56-1.72-.57-1.73-.57-1.72-.57-1.72-.58-1.72-.59-1.73-.59-1.72-.59-1.72-.6-1.73-.6-1.72-.61-1.73-.61-1.72-.62-1.73-.47 1.03-.47 1.03zm-311.04 2.05l-.59 1.72-.58 1.71-.58 1.71-.58 1.71-.57 1.71-.57 1.71-.56 1.71-.57 1.71-.55 1.71-.56 1.71-.55 1.71-.54 1.7-.54 1.71-.54 1.7-.54 1.71-.53 1.7-.52 1.7-.52 1.7-.52 1.7-.51 1.7-.51 1.69-.5 1.7-.5 1.69-.5 1.69-.49 1.69-.48 1.69-.48 1.68-.48 1.69-.47 1.68-.47 1.68-.46 1.68-.45 1.68-.46 1.67-.44 1.67-.45 1.67-.43 1.67-.43 1.66-.43 1.67 1.5.41 1.51.4 1.51.4 1.51.4 1.52.4 1.52.39 1.53.39 1.52.38 1.53.38 1.54.38 1.54.37 1.54.37 1.54.36 1.55.36 1.55.36 1.55.35 1.56.35 1.56.35 1.56.34 1.57.34 1.57.34 1.57.33 1.58.33 1.57.33 1.59.32 1.58.32 1.59.31 1.59.32 1.59.3 1.6.31 1.6.3 1.61.3 1.6.29 1.61.3 1.61.28 1.62.29 1.62.28 1.62.28 1.62.28 1.63.27-.56-.98-.57-.98-.56-.98-.56-.99-.55-.98-.56-.99-.56-.98-.56-.99-.56-.99-.55-.99-.56-.99-.55-1-.56-.99-.55-1-.56-.99-.55-1-.55-1-.55-1-.55-1.01-.55-1-.55-1-.55-1.01-.55-1.01-.55-1.01-.55-1.01-.55-1.01-.54-1.01-.55-1.02-.54-1.01-.55-1.02-.54-1.01-.55-1.02-.54-1.02-.54-1.03-.54-1.02-.55-1.02-.54-1.03-.54-1.02-.54-1.03-.54-1.03-.53-1.03-.54-1.03-.53-1.03-.53-1.03-.53-1.03-.53-1.03-.52-1.03-.53-1.03-.52-1.03-.52-1.03-.51-1.03-.52-1.03-.51-1.03-.51-1.03-.51-1.03-.5-1.03-.51-1.03-.5-1.03-.5-1.03-.5-1.03-.5-1.03-.5-1.03-.49-1.03-.5-1.03-.49-1.03-.49-1.03-.48-1.03-.49-1.03-.49-1.03-.48-1.03-.48-1.03-.48-1.03-.48-1.03-.48-1.03-.48-1.03-.47-1.03-.48-1.03-.47-1.03-.47-1.03-.47-1.03-.6 1.71-.59 1.71zm-55.15-153.51l-1.11.4-1.1.4-1.11.41-1.1.4-1.1.41-1.1.41-1.09.41-1.09.42-1.09.41-1.09.42-1.09.41-1.08.42-1.08.43-1.08.42-1.07.42-1.07.43-1.07.43-1.06.43-1.07.43-1.05.44-1.06.43-1.05.44-1.05.44-1.05.44-1.04.45-1.03.44-1.04.45-1.03.45-1.03.46-1.02.45-1.02.46-1.01.46-1.01.46-1.01.47-1 .47-1 .47-.99.47-.99.47-4.02 1.95-3.95 1.98-3.87 2-3.8 2.04-3.72 2.05-3.65 2.09-3.56 2.1-3.48 2.13-3.39 2.14-3.31 2.17-3.23 2.18-3.13 2.2-3.05 2.21-2.96 2.22-2.86 2.24-2.77 2.24-2.67 2.25-2.58 2.26-2.48 2.27-2.37 2.26-2.28 2.27-2.17 2.28-2.07 2.27-1.97 2.26-1.85 2.27-1.75 2.26-1.63 2.25-1.53 2.24-1.41 2.24-1.3 2.22-1.18 2.22-1.06 2.19-.94 2.19-.82 2.16-.7 2.15-.58 2.13-.45 2.11-.32 2.08-.2 2.06-.06 2.04.06 2.03.2 2.06.32 2.08.45 2.11.58 2.12.7 2.15.82 2.16.94 2.18 1.06 2.19 1.18 2.21 1.3 2.22 1.41 2.23 1.53 2.24 1.63 2.25 1.75 2.26 1.85 2.26 1.97 2.26 2.07 2.27 2.17 2.27 2.28 2.26 2.37 2.27 2.48 2.26 2.58 2.26 2.67 2.25 2.77 2.24 2.86 2.23 2.96 2.23 3.05 2.21 3.13 2.2 3.23 2.18 3.31 2.17 3.39 2.15 3.48 2.13 3.56 2.11 3.65 2.09 3.72 2.06 3.8 2.05 3.87 2.01 3.95 1.99 4.02 1.96 1 .47 1.01.48 1 .47 1.02.47 1.01.47 1.02.46 1.02.47 1.03.46 1.03.46 1.03.45 1.04.46 1.04.46 1.05.45 1.05.45 1.05.45 1.06.44 1.06.45 1.06.44 1.07.44 1.07.44 1.07.44 1.08.43 1.08.43 1.08.43 1.09.43 1.09.43 1.09.43 1.1.42 1.1.42 1.11.42 1.1.42 1.11.41 1.11.42 1.12.41 1.12.41 1.12.41 1.13.4 1.12.41 1.13.4 1.14.4.65-2.52.65-2.51.67-2.53.68-2.53.69-2.53.7-2.54.71-2.54.72-2.55.72-2.55.74-2.56.76-2.56.76-2.57.77-2.57.78-2.57.79-2.58.8-2.59.81-2.59.83-2.59.83-2.6.84-2.6.86-2.61.86-2.61.88-2.61.88-2.62.89-2.62.91-2.63.92-2.63.92-2.63.94-2.64.94-2.64.96-2.65.97-2.64.98-2.66.98-2.65 1-2.66 1.01-2.67 1.02-2.66 1.03-2.67 1.04-2.67 1.05-2.68-1.06-2.69-1.06-2.69-1.04-2.68-1.03-2.68-1.02-2.67-1.01-2.68-.99-2.67-.99-2.66-.98-2.66-.97-2.66-.96-2.65-.95-2.66-.93-2.64-.93-2.64-.92-2.64-.9-2.64-.9-2.63-.89-2.63-.87-2.62-.87-2.62-.85-2.61-.84-2.61-.84-2.61-.82-2.6-.82-2.6-.8-2.59-.79-2.59-.78-2.59-.78-2.58-.76-2.57-.75-2.57-.74-2.57-.73-2.56-.72-2.55-.71-2.55-.7-2.55-.69-2.54-.68-2.54-.67-2.53-.66-2.52-1.11.4-1.11.4zm419.48 4.06l-.66 2.52-.68 2.53-.69 2.53-.7 2.54-.71 2.54-.72 2.55-.73 2.55-.74 2.56-.75 2.56-.76 2.57-.77 2.57-.78 2.57-.79 2.59-.81 2.58-.81 2.59-.82 2.59-.83 2.6-.85 2.6-.85 2.61-.86 2.61-.88 2.61-.88 2.62-.9 2.62-.9 2.63-.92 2.63-.92 2.63-.94 2.64-.95 2.64-.95 2.65-.97 2.65-.98 2.65-.99 2.65-.99 2.66-1.01 2.67-1.02 2.66-1.03 2.67-1.04 2.68-1.05 2.67 1.06 2.69 1.05 2.69 1.04 2.68 1.03 2.68 1.02 2.68 1.01 2.67 1 2.67.99 2.66.98 2.66.97 2.66.96 2.66.94 2.65.94 2.64.93 2.65.91 2.64.91 2.63.9 2.63.88 2.63.88 2.62.86 2.62.86 2.62.84 2.61.84 2.6.82 2.6.81 2.6.81 2.59.79 2.59.78 2.59.77 2.58.77 2.57.75 2.57.74 2.57.73 2.56.72 2.55.71 2.56.7 2.54.69 2.54.68 2.54.67 2.53.66 2.53 1.11-.4 1.11-.4 1.11-.41 1.1-.4 1.11-.41 1.1-.4 1.1-.41 1.09-.41 1.1-.41 1.09-.42 1.09-.41 1.09-.42 1.08-.41 1.09-.42 1.08-.42 1.07-.43 1.08-.42 1.07-.43 1.07-.43 1.06-.43 1.06-.43 1.06-.43 1.06-.44 1.05-.44 1.05-.44 1.04-.44 1.04-.45 1.04-.44 1.04-.45 1.03-.45 1.02-.46 1.02-.45 1.02-.46 1.02-.46 1.01-.46 1-.47 1.01-.46.99-.47 1-.48.98-.47 4.03-1.95 3.95-1.98 3.87-2 3.8-2.03 3.72-2.06 3.64-2.08 3.57-2.11 3.47-2.13 3.4-2.14 3.31-2.17 3.23-2.18 3.13-2.2 3.05-2.21 2.96-2.22 2.86-2.24 2.77-2.24 2.68-2.25 2.58-2.26 2.48-2.26 2.38-2.27 2.28-2.27 2.18-2.27 2.07-2.27 1.97-2.27 1.86-2.27 1.75-2.26 1.64-2.25 1.53-2.24 1.42-2.24 1.3-2.22 1.18-2.22 1.07-2.19.95-2.19.83-2.16.71-2.15.59-2.13.46-2.11.33-2.08.21-2.06.07-2.03-.06-2.04-.2-2.06-.32-2.08-.45-2.11-.58-2.12-.7-2.15-.82-2.16-.94-2.18-1.06-2.19-1.18-2.21-1.3-2.22-1.41-2.23-1.53-2.24-1.63-2.25-1.75-2.26-1.85-2.26-1.97-2.26-2.07-2.27-2.17-2.26-2.28-2.27-2.37-2.27-2.48-2.26-2.58-2.25-2.67-2.25-2.77-2.25-2.86-2.23-2.96-2.22-3.05-2.22-3.13-2.19-3.23-2.19-3.31-2.17-3.39-2.15-3.48-2.13-3.56-2.11-3.65-2.09-3.72-2.06-3.8-2.04-3.87-2.02-3.95-1.99-4.02-1.96-1.01-.47-1.02-.48-1.02-.47-1.02-.47-1.02-.46-1.03-.47-1.03-.46-1.03-.47-1.04-.46-1.04-.45-1.05-.46-1.04-.45-1.06-.46-1.05-.45-1.06-.44-1.06-.45-1.06-.45-1.07-.44-1.07-.44-1.07-.44-1.08-.43-1.08-.44-1.08-.43-1.09-.43-1.09-.43-1.09-.43-1.09-.42-1.1-.43-1.1-.42-1.11-.42-1.1-.42-1.11-.41-1.12-.41-1.11-.42-1.12-.41-1.12-.4-1.13-.41-1.13-.4-1.13-.41-1.13-.4-.65 2.52-.66 2.52zm-324.53-28.18l-1.63.28-1.63.29-1.63.28-1.62.3-1.62.29-1.62.3-1.61.3-1.61.31-1.61.31-1.61.31-1.6.31-1.6.32-1.59.33-1.59.32-1.59.33-1.59.34-1.58.33-1.58.34-1.57.34-1.57.35-1.57.35-1.56.35-1.56.36-1.56.36-1.56.36-1.54.36-1.55.37-1.54.37-1.54.37-1.54.38-1.53.38-1.53.38-1.52.38-1.52.39-1.52.39-1.51.39-1.51.4-1.5.4.44 1.67.44 1.68.45 1.68.45 1.68.46 1.69.46 1.68.46 1.69.47 1.69.48 1.7.48 1.69.48 1.7.49 1.7.49 1.7.5 1.7.5 1.71.51 1.7.51 1.71.52 1.71.52 1.71.52 1.71.53 1.71.54 1.72.53 1.71.55 1.72.55 1.72.55 1.71.56 1.72.56 1.72.56 1.73.58 1.72.57 1.72.58 1.72.59 1.73.58 1.72.6 1.72.6 1.73.6 1.72.61 1.73.61 1.72.62 1.73.47-1.03.47-1.03.47-1.03.48-1.03.47-1.03.48-1.03.48-1.03.48-1.03.48-1.03.48-1.03.48-1.03.48-1.03.49-1.03.49-1.03.49-1.03.49-1.03.49-1.03.49-1.03.49-1.03.5-1.03.49-1.03.5-1.03.5-1.03.5-1.03.5-1.03.51-1.03.5-1.03.51-1.03.51-1.03.51-1.03.51-1.03.52-1.03.51-1.03.52-1.03.51-1.03.52-1.03.53-1.03.52-1.03.52-1.03.53-1.03.53-1.04.53-1.04.53-1.04.53-1.04.54-1.04.53-1.04.54-1.03.54-1.03.54-1.03.54-1.04.55-1.02.54-1.03.55-1.03.54-1.02.55-1.03.55-1.02.55-1.02.55-1.02.55-1.02.56-1.02.55-1.02.55-1.01.56-1.02.55-1.01.56-1.01.56-1.01.56-1.01.56-1.01.55-1 .56-1.01.56-1 .56-1 .56-1 .57-1 .56-1 .56-1 .56-1 .56-.99.56-.99.56-1-1.63.28-1.64.27zm231.26 1.41l.56.99.57.98.56.98.56.99.56.99.56.98.56.99.56.99.56 1 .56.99.56.99.56 1 .55 1 .56 1 .56.99.55 1.01.55 1 .56 1 .55 1.01.55 1 .55 1.01.55 1.01.55 1.01.55 1.01.55 1.01.54 1.02.55 1.01.54 1.02.54 1.02.54 1.02.54 1.02.54 1.02.54 1.02.53 1.02.53 1.03.54 1.03.53 1.02.52 1.03.54 1.03.54 1.03.53 1.03.53 1.03.53 1.03.53 1.03.52 1.03.52 1.03.52 1.03.52 1.03.52 1.03.51 1.03.52 1.03.51 1.03.5 1.03.51 1.03.51 1.03.5 1.03.5 1.03.5 1.03.5 1.03.49 1.03.5 1.03.49 1.03.49 1.03.49 1.03.49 1.03.49 1.03.48 1.03.49 1.03.48 1.03.48 1.03.48 1.03.48 1.03.47 1.03.48 1.03.47 1.03.48 1.03.47 1.03.47 1.03.59-1.71.6-1.71.58-1.71.59-1.72.58-1.71.57-1.71.58-1.71.57-1.71.56-1.71.56-1.71.56-1.71.55-1.71.55-1.7.55-1.71.54-1.71.54-1.7.53-1.7.53-1.71.53-1.7.52-1.7.52-1.7.51-1.69.51-1.7.5-1.69.5-1.7.49-1.69.49-1.69.49-1.69.48-1.68.47-1.69.48-1.68.46-1.68.46-1.68.46-1.67.45-1.68.45-1.67.44-1.67.44-1.67.43-1.66.43-1.66-1.51-.41-1.5-.41-1.51-.4-1.52-.4-1.51-.4-1.53-.39-1.52-.38-1.53-.39-1.53-.38-1.53-.37-1.54-.38-1.54-.36-1.54-.37-1.55-.36-1.55-.36-1.55-.35-1.56-.35-1.56-.35-1.56-.34-1.57-.34-1.57-.34-1.57-.33-1.58-.33-1.58-.33-1.58-.32-1.58-.32-1.59-.31-1.59-.31-1.6-.31-1.59-.31-1.61-.3-1.6-.3-1.6-.29-1.61-.29-1.62-.29-1.61-.29-1.62-.28-1.62-.28-1.62-.27-1.63-.28.56.98.56.98zM221.45 39.14l-.52.01-.52.01-.51.02-.51.02-.51.03-.5.04-.5.04-.49.04-.49.05-.48.06-.48.06-.47.07-.47.07-.47.08-.46.08-.46.09-.45.09-.45.11-.44.1-.44.11-.44.12-.43.13-.42.13-.42.13-.42.14-.41.15-.41.16-.4.16-.39.16-.4.17-.38.18-.38.19-.38.19-.37.19-.37.21-.36.21-.36.21-.35.22-.35.23-1.52 1.09-1.48 1.22-1.44 1.37-1.39 1.49-1.35 1.63-1.3 1.75-1.25 1.89-1.2 2.01-1.16 2.13-1.11 2.25-1.06 2.38-1.02 2.49-.96 2.6-.92 2.72-.86 2.82-.82 2.94-.76 3.04-.72 3.14-.66 3.25-.61 3.35-.56 3.44-.51 3.54-.45 3.63-.4 3.73-.34 3.81-.3 3.9-.23 3.99-.19 4.06-.12 4.15-.07 4.22-.02 4.31.04 4.37.1 4.45.16 4.52.21 4.58.27 4.65.34 4.72.39 4.77.44 4.83.51 4.89.14 1.2.14 1.2.15 1.21.15 1.2.15 1.21.15 1.21.16 1.22.16 1.21.16 1.22.16 1.22.17 1.23.17 1.22.18 1.23.18 1.23.18 1.23.18 1.24.19 1.24.19 1.24.19 1.24.2 1.24.2 1.25.2 1.25.2 1.25.21 1.26.22 1.25.21 1.26.22 1.26.22 1.26.23 1.26.22 1.27.24 1.27.23 1.27.24 1.27.24 1.28.25 1.27.24 1.28.26 1.28.25 1.29.26 1.28.26 1.29 2.25-.63 2.27-.62 2.27-.61 2.28-.6 2.3-.6 2.3-.59 2.31-.58 2.32-.57 2.34-.57 2.34-.55 2.35-.55 2.36-.54 2.37-.54 2.38-.52 2.38-.52 2.4-.51 2.41-.5 2.41-.49 2.42-.49 2.44-.47 2.44-.47 2.45-.46 2.45-.46 2.47-.44 2.47-.44 2.49-.43 2.49-.42 2.5-.41 2.5-.4 2.52-.4 2.52-.39 2.53-.38 2.54-.37 2.54-.36 2.55-.36 2.56-.34 2.57-.34 2.57-.33 2.58-.32 2.59-.32 1.53-2.37 1.53-2.37 1.53-2.35 1.54-2.34 1.54-2.33 1.55-2.32 1.55-2.3 1.55-2.3 1.55-2.28 1.56-2.27 1.56-2.26 1.57-2.25 1.57-2.23 1.57-2.22 1.57-2.21 1.57-2.2 1.58-2.19 1.58-2.17 1.58-2.16 1.59-2.15 1.58-2.14 1.59-2.13 1.59-2.11 1.59-2.1 1.6-2.09 1.59-2.07 1.6-2.07 1.59-2.05 1.6-2.04 1.6-2.02 1.6-2.02 1.6-2 1.61-1.99 1.6-1.97 1.6-1.96 1.61-1.95 1.6-1.94 1.61-1.93 1.6-1.91 1.61-1.9-3.73-3.83-3.72-3.74-3.71-3.66-3.69-3.56-3.68-3.48-3.66-3.39-3.64-3.29-3.63-3.21-3.6-3.11-3.58-3.02-3.56-2.94-3.54-2.83-3.51-2.75-3.48-2.65-3.46-2.55-3.43-2.47-3.4-2.36-3.37-2.28-3.34-2.17-3.3-2.08-3.27-1.98-3.24-1.89-3.2-1.79-3.16-1.69-3.12-1.59-3.08-1.49-3.04-1.39-3-1.29-2.96-1.19-2.91-1.09-2.87-.99-2.81-.88-2.78-.79-2.72-.68-2.67-.57-2.62-.48-2.56-.37-2.52-.26-2.46-.16-2.4-.05v.17h-.52zM525 38.33l-2.47.16-2.52.27-2.57.37-2.63.48-2.67.58-2.73.68-2.78.79-2.82.89-2.87 1-2.91 1.09-2.96 1.2-3 1.3-3.04 1.4-3.08 1.5-3.12 1.6-3.16 1.7-3.2 1.8-3.23 1.9-3.27 1.99-3.3 2.09-3.33 2.19-3.37 2.29-3.4 2.38-3.42 2.48-3.45 2.57-3.49 2.67-3.5 2.76-3.53 2.86-3.56 2.95-3.58 3.04-3.6 3.13-3.62 3.23-3.64 3.32-3.66 3.41-3.67 3.5-3.69 3.59-3.71 3.68-3.72 3.76-3.73 3.86 1.62 1.9 1.61 1.91 1.62 1.93 1.61 1.94 1.62 1.95 1.61 1.97 1.61 1.98 1.61 1.99 1.61 2 1.61 2.02 1.61 2.03 1.6 2.05 1.61 2.05 1.6 2.07 1.6 2.09 1.6 2.09 1.6 2.11 1.6 2.12 1.6 2.13 1.59 2.14 1.6 2.16 1.59 2.17 1.59 2.18 1.58 2.19 1.59 2.2 1.58 2.22 1.58 2.23 1.58 2.24 1.58 2.25 1.57 2.26 1.58 2.28 1.57 2.28 1.56 2.3 1.57 2.31 1.56 2.32 1.56 2.33 1.56 2.35 1.56 2.35 1.55 2.37 1.55 2.37 2.57.32 2.57.32 2.57.33 2.55.34 2.55.34 2.55.36 2.53.36 2.53.37 2.53.38 2.51.39 2.51.39 2.5.4 2.49.42 2.49.41 2.48.43 2.47.44 2.46.44 2.45.45 2.45.46 2.44.46 2.43.48 2.42.48 2.41.49 2.4.5 2.4.5 2.38.51 2.38.52 2.37.53 2.36.53 2.35.54 2.34.55 2.33.56 2.32.56 2.32.58 2.3.57 2.29.59 2.28.59 2.28.6 2.26.61 2.25.61.25-1.29.25-1.3.25-1.3.24-1.3.24-1.29.24-1.29.24-1.29.23-1.29.23-1.29.23-1.29.23-1.28.22-1.28.22-1.28.22-1.28.21-1.28.21-1.27.21-1.28.21-1.27.2-1.26.2-1.27.2-1.26.19-1.27.19-1.25.19-1.26.18-1.26.18-1.25.18-1.25.17-1.24.17-1.25.16-1.24.17-1.24.15-1.23.16-1.24.15-1.23.15-1.22.14-1.23.14-1.22.14-1.22.13-1.21.13-1.21.5-4.89.43-4.84.38-4.77.32-4.72.26-4.65.2-4.58.15-4.52.09-4.44.03-4.38-.03-4.3-.08-4.23-.14-4.14-.19-4.07-.25-3.98-.31-3.9-.35-3.81-.41-3.72-.47-3.63-.52-3.54-.57-3.44-.62-3.34-.67-3.25-.73-3.14-.77-3.03-.83-2.93-.88-2.83-.93-2.71-.97-2.59-1.03-2.49-1.07-2.36-1.12-2.25-1.17-2.12-1.22-2-1.26-1.88-1.31-1.75-1.36-1.61-1.4-1.49-1.45-1.35-1.49-1.21-1.54-1.07-.36-.22-.36-.21-.36-.21-.37-.2-.37-.19-.38-.19-.37-.19-.39-.18-.38-.17-.39-.17-.4-.17-.4-.16-.4-.15-.4-.15-.41-.14-.42-.14-.41-.13-.43-.12-.42-.12-.43-.12-.44-.11-.44-.1-.44-.1-.45-.1-.45-.08-.46-.09-.46-.07-.47-.07-.47-.07-.47-.06-.48-.05-.49-.05-.49-.05-.49-.03-.5-.04-.51-.02-.51-.02-.51-.02h-.52l-.53-.01v-.17h.16V.17h-.16v38.11l-2.26.05zM372.43 148.4l-1.06 1.25-1.05 1.26-1.06 1.27-1.06 1.28-1.05 1.28-1.06 1.29-1.06 1.29-1.06 1.31-1.05 1.31-1.06 1.31-1.06 1.32-1.06 1.33-1.05 1.34-1.06 1.35-1.06 1.35-1.05 1.35-1.06 1.37-1.05 1.37-1.06 1.38-1.05 1.38-1.06 1.39-1.05 1.4-1.05 1.4-1.05 1.42-1.05 1.41-1.05 1.43-1.05 1.43-1.04 1.44-1.05 1.44-1.04 1.45-1.05 1.46-1.04 1.47-1.04 1.47-1.04 1.47-1.04 1.49-1.03 1.49-1.04 1.49-1.03 1.51 1.04-.07 1.05-.06 1.05-.06 1.04-.06 1.05-.05 1.05-.06 1.05-.05 1.05-.05 1.06-.05 1.05-.04 1.05-.05 1.06-.04 1.06-.04 1.05-.04 1.06-.04 1.06-.04 1.06-.03 1.06-.03 1.07-.04 1.06-.03 1.06-.02 1.07-.03 1.06-.03 1.07-.02 1.07-.02 1.06-.02 1.07-.02 1.07-.02 1.07-.01 1.07-.02 1.08-.01 1.07-.01 1.07-.01 1.07-.01 1.08-.01h1.07l1.08-.01H378.2l1.06.01 1.06.01 1.07.01 1.06.01 1.06.01 1.06.02 1.06.02 1.06.01 1.06.03 1.06.02 1.06.02 1.05.02 1.06.03 1.05.03 1.06.03 1.05.03 1.05.03 1.05.03 1.05.04 1.05.03 1.05.04 1.05.03 1.05.04 1.04.04 1.05.04 1.04.05 1.05.04 1.04.04 1.04.05 1.04.04 1.04.05 1.04.05 1.03.05 1.04.05 1.03.05 1.04.05 1.03.05-1.05-1.51-1.06-1.49-1.06-1.49-1.05-1.49-1.06-1.47-1.06-1.47-1.06-1.47-1.06-1.46-1.05-1.45-1.06-1.44-1.06-1.44-1.06-1.43-1.07-1.43-1.06-1.41-1.06-1.42-1.06-1.4-1.06-1.4-1.07-1.39-1.06-1.38-1.06-1.38-1.07-1.37-1.06-1.37-1.06-1.35-1.07-1.35-1.06-1.35-1.07-1.34-1.06-1.33-1.07-1.32-1.06-1.31-1.07-1.31-1.06-1.31-1.07-1.29-1.07-1.29-1.06-1.28-1.07-1.28-1.06-1.27-1.07-1.26-1.07-1.25-1.06-1.25-1.07-1.24-1.05 1.24-1.06 1.25z" id="a"/><path d="M374.85 296.64c-38.59 0-69.87 35.12-69.87 78.45 0 43.32 31.28 78.45 69.87 78.45 38.58 0 69.86-35.13 69.86-78.45 0-43.33-31.28-78.45-69.86-78.45z" id="b"/></defs><use xlink:href="#a" opacity=".31" fill="#61dafb"/><use xlink:href="#a" opacity=".31" fill-opacity="0" stroke="#000" stroke-opacity="0"/><use xlink:href="#b" opacity=".31" fill="#61dafb"/><use xlink:href="#b" opacity=".31" fill-opacity="0" stroke="#000" stroke-opacity="0"/><g><use xlink:href="#c" opacity=".31" fill="#61dafb"/><use xlink:href="#c" opacity=".31" fill-opacity="0" stroke="#000" stroke-opacity="0"/></g></svg>