<svg version="1" xmlns="http://www.w3.org/2000/svg" width="1706.667" height="1706.667" viewBox="0 0 1280.000000 1280.000000"><path d="M658.8 86.5c-.2.2-7.3.6-15.8.9-8.5.4-18.6.9-22.5 1.1-3.8.3-11.5.7-17 1-5.5.3-11.8.8-14 1-2.2.2-7.8.7-12.5 1-4.7.3-9.8.8-11.5 1-1.6.2-6.1.7-10 1-3.8.3-8.8.8-11 1-2.2.3-6.2.7-9 1-4.5.4-6.7.7-17 2-4.2.6-19.1 2.4-24.9 3-2.8.4-5.2.8-5.5 1-.3.2-3.1.6-6.1 1-4.7.5-13.7 2-25.5 4-1.6.3-5.7 1-9 1.6-3.3.5-9.1 1.6-13 2.4-3.8.8-8.6 1.7-10.5 2-6.1 1-8.5 1.5-10.5 2-1.1.2-6.1 1.3-11.1 2.4-18.2 3.9-58.1 14.2-66.4 17.1-1.4.4-7.9 2.5-14.5 4.5-12.8 3.9-49.3 17.2-51 18.5-.5.4-2.1 1.1-3.5 1.5-7.3 2.1-38.2 17.6-52.5 26.2-17.8 10.8-28.1 18.8-41.6 32.3-13.2 13.2-20.2 23.8-25.5 38.6l-2.8 7.9-.3 47.4c-.3 39.8-.6 47.9-1.8 49.7-.8 1.3-2.7 5.8-4.1 10.1l-2.7 7.8-.2 45.3c-.3 45.1-.5 48.2-3.6 48.2-4 0-34.4 22.5-45.5 33.7C66 526.1 56.8 545 57 566.5c.1 5.5.1 34.1 0 63.5-.1 51.1 0 53.8 2 60.8 5.1 18.3 18 36.2 38.2 53.4 3.7 3.1 8.1 6.5 9.8 7.4l3 1.8v29.1L98.7 788c-42.8 20.8-73.2 45.1-87.8 70.5-3.3 5.6-6.6 13-7.5 16.5-.2.8-.8 3.3-1.4 5.5-1.8 6.5-2.2 128.8-.5 135.6 3.5 13.7 8.5 23.7 18 35.6 16.7 20.9 41.6 39 79 57.3 37.6 18.5 74.9 31.7 127.5 45.1 19.5 5 37.5 9.1 57 12.8 3 .6 6.6 1.3 8 1.6 3.9.8 36.1 6.3 40.5 7 2.2.3 6.7 1 10 1.5 6.6 1 6.2 1 29 3.9 8.8 1.1 18.7 2.2 22 2.6 3.3.3 7.1.7 8.5 1 1.4.2 6.1.7 10.5 1 4.4.4 9.4.8 11 1 1.7.2 6.6.7 11 1 4.4.3 10.3.8 13 1.1 2.8.2 9.3.7 14.5.9 5.2.3 13.1.7 17.5 1 4.4.2 14.3.7 22 1.1 29.8 1.6 129.9.9 159.5-1.1 3.6-.3 10.8-.7 16-1 5.2-.3 12-.7 15-1 3-.3 8.4-.7 12-1 3.6-.3 8.5-.7 11-1 6-.6 15.3-1.5 21.6-2 4.6-.4 17.7-1.9 26.4-3 1.9-.3 5.5-.7 7.9-1 2.3-.3 5.5-.7 7-.9 1.4-.3 4.9-.7 7.6-1.1 2.8-.3 7.5-1 10.5-1.5s7.5-1.2 10-1.5c5.2-.7 4.8-.6 24-4 15.2-2.6 16.5-2.9 24.5-4.5 2.8-.6 6.1-1.2 7.5-1.5 1.4-.3 3.6-.7 5-1 1.4-.3 3.4-.7 4.5-.9 4.5-.9 20.8-4.7 32.5-7.6 96.7-23.5 170.4-57.8 206.4-96.1 14.5-15.4 23.7-32.2 26-47.4.2-1.7.5-14.9.5-29.5l.1-26.5 9.3-4.4c54.5-26.3 88.6-57.6 98.4-90.6 1.6-5.4 1.8-11.6 1.9-66.5.1-33.3-.2-63.4-.7-67-3.1-22.3-18.3-45-43.7-64.9l-8.2-6.5-.1-5.5c0-5.3 0-41.3.1-51.4 0-4.3.3-5 3.2-6.5 1.7-.9 8.3-5.1 14.7-9.4 32.3-21.3 51.2-43.5 58-68.4 1.8-6.3 2-10.8 2.1-52.2.1-44.2.1-45.5 2.2-49.6 1.2-2.2 3-6.8 4.2-10.1 1.9-5.8 2-8.4 2.3-70 .3-72.9.4-71.2-7.7-88-14.4-29.8-48.8-57-103.5-82-9.5-4.3-37.3-15.4-46.5-18.5-3.6-1.2-7.4-2.5-8.5-2.9-3.2-1.3-34.6-10.9-38-11.7-.5-.1-6.8-1.8-14-3.7-14.5-3.9-51.8-12.5-61-14.1-4.5-.7-8.7-1.6-11.3-2.1-2.4-.6-21.7-4-28.6-5.1-2.1-.3-4.7-.7-5.6-.9-1-.2-4-.7-6.7-1.1-2.6-.3-5.7-.8-6.8-1-1.1-.2-4-.6-6.5-.9-2.5-.3-7.4-1-11-1.5-3.6-.5-10.1-1.4-14.5-1.9-4.4-.6-10.2-1.3-12.9-1.6-2.6-.3-6.9-.8-9.5-1.1-2.5-.2-8.2-.8-12.6-1.3s-8.7-.9-9.5-.9c-.8 0-3.7-.2-6.5-.6-5.1-.6-11-1.1-25-2.1-4.4-.3-10.5-.7-13.5-1-3-.2-11.6-.7-19-1.1-7.4-.3-16-.8-19-1.1-6.1-.4-122.7-1.2-123.2-.8z"/></svg>